<svg width="33" height="33" viewBox="0 0 33 33" fill="none" xmlns="http://www.w3.org/2000/svg">
<path d="M22.8346 33H10C10.4102 28.3108 11.2268 25.4646 14.9975 19.531C15.9976 18.1493 16.7999 16.5778 17.2123 17.134L17.4963 18.0471C17.9957 17.6128 18.074 17.1345 18.0642 16.1067L20.1654 14.1092L22.2099 17.4194C22.4894 17.2134 22.5417 17.038 22.5506 16.6774L21.5284 12.6824C22.6674 11.6751 23.3771 11.1164 23.2321 10H33V23.0124H22.8346V33Z" fill="#A6F97E"/>
<path d="M1.53051e-07 10.1654L0 23C4.68917 22.5898 7.53541 21.7732 13.469 18.0025C14.8507 17.0024 16.4222 16.2001 15.866 15.7877L14.9529 15.5037C15.3872 15.0043 15.8655 14.926 16.8933 14.9358L18.8908 12.8346L15.5806 10.7901C15.7866 10.5106 15.962 10.4583 16.3226 10.4494L20.3176 11.4716C21.3249 10.3326 21.8836 9.62289 23 9.7679L23 0L9.98759 -1.55171e-07L9.98759 10.1654L1.53051e-07 10.1654Z" fill="#D8FFC5"/>
</svg>
