<svg width="26" height="26" viewBox="0 0 26 26" fill="none" xmlns="http://www.w3.org/2000/svg">
<path d="M16.5024 5.94533C15.5892 5.90417 15.314 5.8955 13 5.8955C10.686 5.8955 10.4119 5.90417 9.49867 5.94533C7.14783 6.05258 6.05258 7.16625 5.94642 9.49758C5.90417 10.4119 5.89442 10.686 5.89442 13C5.89442 15.314 5.90417 15.5881 5.94533 16.5024C6.05258 18.8294 7.1435 19.9474 9.49758 20.0547C10.4108 20.0958 10.686 20.1056 13 20.1056C15.3151 20.1056 15.5892 20.0969 16.5024 20.0558C18.8533 19.9485 19.9474 18.8327 20.0547 16.5035C20.0958 15.5892 20.1045 15.3151 20.1045 13.0011C20.1045 10.6871 20.0958 10.413 20.0547 9.49975C19.9474 7.16733 18.8511 6.05258 16.5024 5.94533ZM13 17.4503C10.5419 17.4503 8.54967 15.4581 8.54967 13C8.54967 10.5419 10.543 8.54967 13 8.54967C15.457 8.54967 17.4503 10.5419 17.4503 13C17.4503 15.4581 15.4581 17.4503 13 17.4503ZM17.6269 9.41417C17.0527 9.41417 16.5869 8.94833 16.5869 8.37417C16.5869 7.8 17.0527 7.33417 17.6269 7.33417C18.2011 7.33417 18.6669 7.8 18.6669 8.37417C18.6669 8.94833 18.2011 9.41417 17.6269 9.41417ZM15.8893 13C15.8893 14.5958 14.5958 15.8893 13 15.8893C11.4043 15.8893 10.1108 14.5958 10.1108 13C10.1108 11.4043 11.4043 10.1108 13 10.1108C14.5958 10.1108 15.8893 11.4043 15.8893 13ZM20.5833 0H5.41667C2.42558 0 0 2.42558 0 5.41667V20.5833C0 23.5744 2.42558 26 5.41667 26H20.5833C23.5755 26 26 23.5744 26 20.5833V5.41667C26 2.42558 23.5755 0 20.5833 0V0ZM21.6147 16.5728C21.4717 19.7243 19.7178 21.4706 16.5739 21.6147C15.6488 21.6569 15.3541 21.6667 13 21.6667C10.6459 21.6667 10.3523 21.6569 9.42717 21.6147C6.27683 21.4706 4.5305 19.721 4.38533 16.5728C4.34308 15.6488 4.33333 15.3541 4.33333 13C4.33333 10.647 4.34308 10.3512 4.38533 9.42717C4.5305 6.27683 6.279 4.52942 9.42717 4.38642C10.3523 4.34308 10.6459 4.33333 13 4.33333C15.3541 4.33333 15.6488 4.34308 16.5739 4.38533C19.7243 4.52942 21.4738 6.28225 21.6147 9.42608C21.6569 10.3513 21.6667 10.647 21.6667 13C21.6667 15.3541 21.6569 15.6488 21.6147 16.5728Z"/>
</svg>
