<svg width="26" height="26" viewBox="0 0 26 26" fill="none" xmlns="http://www.w3.org/2000/svg">
<path d="M10.0523 14.6467H9.035V20.0926H8.05133V14.6467H7.033V13.7215H10.0533V14.6467H10.0523ZM15.8968 16.5111V19.1176C15.8968 19.6993 15.6802 20.1511 15.0995 20.1511C14.7788 20.1511 14.5134 20.0341 14.2686 19.7308V20.0915H13.3878V13.7215H14.2686V15.7723C14.4668 15.5318 14.7333 15.3335 15.0464 15.3335C15.6856 15.3335 15.8968 15.8741 15.8968 16.5111ZM14.9977 16.5642C14.9977 16.406 14.9684 16.2858 14.9045 16.2034C14.7983 16.0637 14.6023 16.0485 14.4495 16.1265L14.2686 16.2695V19.1978L14.4744 19.3635C14.6174 19.435 14.8254 19.4404 14.9218 19.3148C14.9717 19.2487 14.9966 19.1403 14.9966 18.9908V16.5642H14.9977ZM12.4551 10.2169C12.7032 10.2169 12.8386 10.0187 12.8386 9.75V7.45442C12.8386 7.17817 12.7183 6.98425 12.4367 6.98425C12.1799 6.98425 12.0543 7.18467 12.0543 7.45442V9.75C12.0553 10.01 12.2027 10.2169 12.4551 10.2169ZM11.661 18.9594C11.5538 19.0927 11.3176 19.3115 11.1464 19.3115C10.9601 19.3115 10.9135 19.1837 10.9135 18.9952V15.3931H10.0414V19.3212C10.0414 20.2746 10.6882 20.28 11.1583 20.0103C11.3317 19.9106 11.4996 19.7643 11.661 19.5737V20.0926H12.5353V15.3931H11.661V18.9594ZM26 5.41667V20.5833C26 23.5744 23.5755 26 20.5833 26H5.41667C2.42558 26 0 23.5744 0 20.5833V5.41667C0 2.42558 2.42558 0 5.41667 0H20.5833C23.5755 0 26 2.42558 26 5.41667ZM14.5535 10.2126C14.5535 10.7001 14.7019 11.0933 15.1948 11.0933C15.4722 11.0933 15.8568 10.9492 16.2554 10.4769V11.0218H17.173V6.08833H16.2554V9.83342C16.1428 9.97317 15.8947 10.2028 15.7159 10.2028C15.5188 10.2028 15.4711 10.0685 15.4711 9.87025V6.08833H14.5535V10.2126ZM11.1118 7.37317V9.79225C11.1118 10.6622 11.5657 11.1139 12.4551 11.1139C13.1939 11.1139 13.7746 10.6199 13.7746 9.79225V7.37317C13.7746 6.60075 13.1993 6.04717 12.4551 6.04717C11.648 6.04717 11.1118 6.58125 11.1118 7.37317ZM7.69383 4.33333L8.92342 8.30917V11.0218H9.95583V8.30917L11.1583 4.33333H10.1086L9.44667 7.007L8.73383 4.33333H7.69383ZM20.2215 16.9726C20.2063 13.7464 19.9702 12.5136 17.9346 12.3738C16.0561 12.246 9.94283 12.246 8.0665 12.3738C6.03417 12.5125 5.79367 13.741 5.77958 16.9726C5.79475 20.1988 6.032 21.4327 8.0665 21.5713C9.94283 21.6992 16.0561 21.6992 17.9346 21.5713C19.968 21.4316 20.2063 20.2042 20.2215 16.9726ZM19.1263 16.6563V17.8523H17.4558V18.7384C17.4558 19.0905 17.485 19.396 17.8371 19.396C18.2054 19.396 18.2271 19.1479 18.2271 18.7384V18.4123H19.1263V18.7655C19.1263 19.6712 18.7384 20.2193 17.8176 20.2193C16.9823 20.2193 16.5566 19.6116 16.5566 18.7655V16.6563C16.5566 15.8405 17.095 15.275 17.8837 15.275C18.7211 15.2739 19.1263 15.8069 19.1263 16.6563ZM18.2271 16.6476C18.2271 16.3302 18.1599 16.0973 17.8447 16.0973C17.5208 16.0973 17.4558 16.3248 17.4558 16.6476V17.1232H18.2271V16.6476Z"/>
</svg>
