<svg width="25" height="25" fill="none" xmlns="http://www.w3.org/2000/svg"><g clip-path="url(#clip0)" fill="#000"><path d="M22.265 12.888a9.93 9.93 0 00-.148-1.708l-.812.142a9.07 9.07 0 01-3.73 8.988l-.665-1.084a1.23 1.23 0 01-.052-1.2l.188-.375a.41.41 0 01.368-.227h.581c.507.001.963-.307 1.15-.778l.557-1.395c.059-.146.09-.302.089-.46v-.907a.82.82 0 00-.242-.583l-.495-.495a.824.824 0 00-.952-.155l-1.014.508a.412.412 0 01-.37 0l-1.648-.825a.41.41 0 01-.227-.367v-1.14a.825.825 0 00-.825-.825.412.412 0 01-.412-.412v-.412c0-.13.061-.252.165-.33l1.32-.99-.495-.66-1.32.99c-.31.234-.493.6-.495.99v.412c0 .683.554 1.237 1.237 1.237v1.14a1.23 1.23 0 00.684 1.106l1.65.824c.348.174.757.174 1.106 0l1.015-.507.494.495v.907c0 .052-.01.104-.03.153l-.558 1.396a.41.41 0 01-.382.259h-.582a1.23 1.23 0 00-1.106.684l-.187.375a2.05 2.05 0 00.086 1.999l.672 1.097a9.038 9.038 0 01-8.293.375l.506-.338a.414.414 0 01.228-.07h1.057c.328.001.643-.13.875-.362l1.166-1.166a1.23 1.23 0 00.362-.875v-1.904c0-.224-.06-.443-.175-.635l-.88-1.473a1.244 1.244 0 00-1.057-.594H9.512c-.414 0-.801.206-1.031.55l-.456.687H7.01a.825.825 0 00-.824.825v.787c0 .14-.072.27-.19.346l-1.286.83a9.016 9.016 0 01-1.4-5.262h.717c.156 0 .299.088.368.228l.483.968a.82.82 0 00.738.453h.435a.824.824 0 00.794-1.051l-.525-1.835h.814c.28 0 .553-.096.772-.271L9.251 9.89a1.24 1.24 0 00.364-1.453L8.91 6.79a.412.412 0 01.168-.516l1.038-.623c.376-.227.604-.636.6-1.076l-.007-.603a9.053 9.053 0 014.006.151l.212-.795a9.896 9.896 0 107.339 9.561zM9.885 4.166l.005.42a.411.411 0 01-.2.358l-1.04.623c-.528.32-.741.98-.5 1.549l.707 1.65a.413.413 0 01-.122.484L7.39 10.326a.412.412 0 01-.257.088h-.814a.824.824 0 00-.794 1.052l.525 1.835h-.435l-.483-.966a1.23 1.23 0 00-1.106-.684h-.641a9.093 9.093 0 016.5-7.485zM5.183 18.413l1.26-.812c.353-.227.567-.619.566-1.039v-.788h1.016a.824.824 0 00.687-.367l.457-.686a.412.412 0 01.343-.183h1.157c.143 0 .275.074.35.195l.88 1.47a.41.41 0 01.058.212v1.904c0 .11-.043.214-.12.292l-1.167 1.166a.411.411 0 01-.292.12H9.321c-.245 0-.484.073-.687.209l-.88.587a9.143 9.143 0 01-2.571-2.28zM.853 13.29l-.823.057c.02.28.049.562.087.839l.817-.113a11.764 11.764 0 01-.081-.783zM2.103 7.19l-.733-.38c-.129.248-.25.507-.362.765l.757.327c.105-.241.219-.48.338-.713zM1.069 14.849l-.808.17c.058.274.124.55.202.82l.793-.225c-.07-.252-.134-.508-.187-.765zM1.058 10.153L.25 9.988c-.056.274-.103.554-.14.833l.817.109c.035-.26.079-.522.131-.777zM2.92 5.842l-.674-.475a12.5 12.5 0 00-.462.707l.705.427c.136-.225.281-.446.431-.66zM1.479 8.635L.7 8.362c-.094.266-.179.536-.253.805l.795.22c.069-.25.148-.503.236-.752zM.85 11.714l-.825-.054c-.017.27-.025.541-.025.816v.026l.825-.026c0-.256.008-.51.025-.762zM1.496 16.365l-.776.277c.095.265.199.529.31.784l.756-.33a11.692 11.692 0 01-.29-.731zM3.912 4.617l-.604-.561c-.19.206-.377.42-.553.637l.64.52c.165-.203.339-.404.517-.596zM10.761 1.043l-.115-.817c-.276.038-.556.087-.832.145l.17.808c.257-.055.518-.1.777-.136zM12.331.931l-.003-.824c-.282 0-.566.011-.843.03l.058.825c.26-.02.523-.03.788-.03zM9.218 1.367L8.994.573c-.268.076-.539.163-.804.258l.28.776c.246-.089.498-.17.748-.24zM5.06 3.54L4.54 2.9c-.217.177-.43.365-.635.556l.565.601c.19-.179.39-.353.592-.519zM7.738 1.898l-.33-.755c-.255.111-.51.234-.76.364l.382.731c.231-.122.47-.235.708-.34zM6.344 2.626l-.432-.703c-.239.147-.475.304-.703.466l.478.672c.213-.15.433-.298.657-.435zM16.977 23.065l.33.755c.256-.111.512-.234.76-.363l-.38-.731c-.232.12-.47.234-.71.339zM20.808 20.354l.603.563c.191-.206.378-.42.555-.636l-.64-.521c-.165.203-.34.403-.518.594zM19.658 21.43l.521.639c.217-.177.43-.364.636-.555l-.563-.603c-.192.18-.39.352-.594.518zM21.804 19.132l.673.477c.162-.229.318-.466.464-.706l-.705-.428a12.5 12.5 0 01-.432.657zM18.373 22.339l.428.704c.239-.146.476-.302.705-.464l-.477-.672c-.212.15-.434.296-.656.432zM15.496 23.592l.222.795c.27-.076.54-.162.805-.256l-.278-.777c-.247.09-.498.168-.75.238zM23.888 13.264l.822.055c.02-.28.029-.563.029-.843h-.825c0 .265-.009.527-.026.788zM23.675 14.824l.808.165c.057-.274.104-.554.142-.832l-.817-.111c-.035.261-.08.523-.133.778zM23.252 16.34l.777.276c.094-.265.18-.536.255-.805l-.794-.221c-.07.25-.15.503-.238.75zM22.623 17.786l.732.38c.13-.248.251-.506.363-.763l-.756-.33c-.104.241-.219.48-.339.713zM2.125 17.805l-.731.382c.13.247.27.495.415.733l.706-.43a10.92 10.92 0 01-.39-.685zM4.577 22.083c.218.178.445.349.672.51l.475-.675a12.08 12.08 0 01-.63-.476l-.517.64zM7.455 23.83c.256.112.52.216.787.31l.275-.777a12.033 12.033 0 01-.733-.289l-.329.757zM5.955 23.054c.24.147.489.286.737.413l.379-.733c-.232-.12-.463-.25-.688-.386l-.428.706zM3.34 20.931c.192.206.394.406.597.596l.563-.603a11.72 11.72 0 01-.559-.556l-.601.563zM2.947 19.148l-.673.477c.162.229.334.454.511.671l.637-.522a11.62 11.62 0 01-.475-.626zM13.954 23.913l.111.817c.277-.038.557-.086.832-.143l-.167-.808c-.258.053-.518.098-.776.134zM10.7 24.734c.276.037.558.065.84.082l.054-.824a11.526 11.526 0 01-.783-.08l-.111.822zM12.381 24.02v.825c.283 0 .566-.01.844-.029l-.056-.824c-.26.02-.523.029-.788.029z"/><path d="M9.047 24.394c.271.075.548.142.821.198l.165-.807a11.477 11.477 0 01-.765-.185l-.22.794zM15.75 3.586l-.237 4.033a2.064 2.064 0 00.6 1.579l.8.799 1.456-3.788L19.84 7.68V9.5c-.001.328.13.642.362.873l.715.716.874-1.458.21.21a1.237 1.237 0 101.75-1.75l-.21-.209L25 7.007l-.715-.716a1.227 1.227 0 00-.875-.362h-1.82l-1.47-1.471L23.91 3l-.801-.8a2.058 2.058 0 00-1.579-.6l-4.032.237L16.172.51a1.267 1.267 0 00-1.75 0 1.237 1.237 0 000 1.75l1.328 1.326zm.852 4.922a1.24 1.24 0 01-.266-.841l.194-3.299 1.202 1.203-1.13 2.937zm4.153 1.247a.416.416 0 01-.09-.258v-.994l.527.527-.437.725zm2.655-3.003c.093 0 .184.032.258.09l-.727.439-.526-.526.995-.003zm-1.832-4.329c.304-.018.604.077.842.266l-2.94 1.13-1.202-1.202 3.3-.194zm-6.573-1.33c.161-.16.422-.16.583 0l7.58 7.581c.16.161.16.422 0 .583a.422.422 0 01-.583 0l-7.58-7.58a.412.412 0 010-.583z"/></g><defs><clipPath id="clip0"><path fill="#fff" d="M0 0h25v25H0z"/></clipPath></defs></svg>
