<svg width="31" height="31" viewBox="0 0 31 31" fill="none" xmlns="http://www.w3.org/2000/svg">
<path d="M30.0831 22.675V27.05C30.0847 27.4561 30.0015 27.8581 29.8388 28.2303C29.6761 28.6024 29.4375 28.9365 29.1382 29.211C28.8389 29.4856 28.4856 29.6946 28.1008 29.8248C27.7161 29.9549 27.3084 30.0032 26.9039 29.9666C22.4164 29.479 18.1058 27.9456 14.3185 25.4896C10.7949 23.2505 7.80754 20.2631 5.56851 16.7396C3.10389 12.9351 1.57011 8.60351 1.09143 4.09581C1.05498 3.69253 1.10291 3.28609 1.23216 2.90235C1.3614 2.51861 1.56913 2.16598 1.84213 1.86693C2.11512 1.56787 2.44739 1.32893 2.81779 1.16532C3.18818 1.00172 3.58859 0.917027 3.99351 0.916645H8.36851C9.07625 0.90968 9.76237 1.1603 10.299 1.6218C10.8356 2.08329 11.1861 2.72417 11.2852 3.42498C11.4698 4.82507 11.8123 6.19979 12.306 7.52289C12.5022 8.04487 12.5447 8.61214 12.4284 9.15751C12.3121 9.70288 12.0419 10.2035 11.6498 10.6L9.79768 12.4521C11.8737 16.1031 14.8967 19.126 18.5477 21.2021L20.3998 19.35C20.7963 18.9579 21.2969 18.6877 21.8422 18.5714C22.3876 18.4551 22.9549 18.4975 23.4768 18.6937C24.7999 19.1874 26.1747 19.5299 27.5748 19.7146C28.2832 19.8145 28.9301 20.1713 29.3926 20.7172C29.8551 21.263 30.1008 21.9598 30.0831 22.675Z" stroke="#171717" stroke-linecap="round" stroke-linejoin="round"/>
</svg>
