<svg width="21" height="21" viewBox="0 0 21 21" fill="none" xmlns="http://www.w3.org/2000/svg">
<g clip-path="url(#clip0)">
<path d="M15.9654 13.893C15.2793 13.2157 14.4228 13.2157 13.7411 13.893C13.2211 14.4087 12.701 14.9243 12.1898 15.4487C12.0499 15.5929 11.9319 15.6235 11.7615 15.5274C11.425 15.3438 11.0667 15.1952 10.7433 14.9942C9.23571 14.046 7.97281 12.8268 6.85412 11.4546C6.29914 10.7729 5.80534 10.0431 5.46012 9.22159C5.3902 9.05553 5.40331 8.94628 5.53877 8.81082C6.05879 8.30828 6.5657 7.79263 7.07698 7.27698C7.78927 6.56032 7.78927 5.7213 7.07261 5.00026C6.66621 4.58949 6.25981 4.18746 5.85341 3.77669C5.4339 3.35718 5.01876 2.9333 4.59488 2.51816C3.9088 1.84956 3.0523 1.84956 2.3706 2.52253C1.84621 3.03818 1.34367 3.56693 0.810541 4.07384C0.316742 4.54142 0.0676576 5.11388 0.0152187 5.78247C-0.0678094 6.87058 0.198755 7.89751 0.574566 8.89821C1.34367 10.9695 2.5148 12.8093 3.93502 14.4961C5.85341 16.7771 8.14324 18.5819 10.822 19.8841C12.0281 20.4697 13.2779 20.9198 14.6369 20.9941C15.5721 21.0465 16.3849 20.8106 17.036 20.0808C17.4817 19.5826 17.9843 19.1282 18.4562 18.6518C19.1554 17.9439 19.1598 17.0874 18.4649 16.3882C17.6347 15.5536 16.8 14.7233 15.9654 13.893Z" fill="#A6F97E"/>
<path d="M15.131 10.4091L16.7435 10.1338C16.4901 8.65241 15.7909 7.31085 14.729 6.24459C13.6059 5.12153 12.1857 4.4136 10.6213 4.19511L10.394 5.81634C11.6045 5.98677 12.7057 6.533 13.5753 7.40261C14.3969 8.22416 14.9344 9.26419 15.131 10.4091Z" fill="#A6F97E"/>
<path d="M17.6527 3.39978C15.7911 1.53821 13.4357 0.362702 10.8356 0L10.6084 1.62123C12.8545 1.93587 14.8909 2.95405 16.499 4.55781C18.0241 6.0829 19.0248 8.01003 19.3875 10.1294L21 9.85413C20.5762 7.39824 19.4181 5.16959 17.6527 3.39978Z" fill="#A6F97E"/>
</g>
<defs>
<clipPath id="clip0">
<rect width="21" height="21" fill="white"/>
</clipPath>
</defs>
</svg>
