<svg width="26" height="26" viewBox="0 0 26 26" fill="none" xmlns="http://www.w3.org/2000/svg">
<g clip-path="url(#clip0)">
<path d="M18.4878 19.9525C18.2183 19.9525 17.9995 20.1713 17.9995 20.4408C17.9995 20.7103 18.2183 20.9291 18.4878 20.9291C18.7573 20.9291 18.9761 20.7103 18.9761 20.4408C18.9761 20.1713 18.7573 19.9525 18.4878 19.9525Z" fill="black"/>
<path d="M19.69 18.3736L17.3692 17.6001L16.5361 15.9338C17.2867 15.1698 17.8078 14.159 17.9835 13.1046L18.0875 12.4818H18.9761C19.7838 12.4818 20.4409 11.8247 20.4409 11.017V7.9408C20.4409 3.90222 17.1553 0.616577 13.1167 0.616577C9.06777 0.616577 5.79248 3.8928 5.79248 7.9408V11.017C5.79248 11.6535 6.20073 12.1963 6.76904 12.3978V12.9701C6.76904 13.7778 7.42617 14.4349 8.23389 14.4349H8.6627C8.87437 14.8948 9.14834 15.3206 9.48174 15.7032C9.55088 15.7827 9.623 15.8597 9.69688 15.9347L8.86416 17.6001L6.54331 18.3736C3.84482 19.2734 1.88623 22.1142 1.88623 25.1283C1.88623 25.398 2.10483 25.6166 2.37451 25.6166H23.8589C24.1285 25.6166 24.3472 25.398 24.3472 25.1283C24.3472 22.1142 22.3886 19.2734 19.69 18.3736ZM19.4644 11.017C19.4644 11.2862 19.2453 11.5052 18.9761 11.5052H18.2309C18.355 10.5438 18.4377 9.52073 18.4709 8.51306C18.4719 8.48464 18.4727 8.45701 18.4736 8.42908H19.4644V11.017ZM7.25732 11.5052C6.98809 11.5052 6.76904 11.2862 6.76904 11.017V8.42908H7.76016C7.76177 8.48 7.76348 8.53118 7.76538 8.58269C7.76543 8.58445 7.76553 8.58616 7.76558 8.58792C7.76558 8.58806 7.76558 8.58821 7.76558 8.58835C7.79976 9.56843 7.8814 10.565 8.00269 11.5052H7.25732V11.5052ZM8.23389 13.4584C7.96465 13.4584 7.74561 13.2393 7.74561 12.9701V12.4818H8.1459L8.2498 13.1048C8.26963 13.2232 8.29399 13.3412 8.32217 13.4584H8.23389ZM7.74644 7.45251H6.7876C7.03491 4.18 9.76597 1.59314 13.1167 1.59314C16.4525 1.59314 19.1956 4.17966 19.4458 7.45251H18.487C18.4519 4.75588 16.2559 2.5697 13.5538 2.5697H12.6797C9.97764 2.5697 7.78154 4.75588 7.74644 7.45251ZM12.6797 3.54626H13.5537C15.7417 3.54626 17.5125 5.33586 17.5112 7.52136C17.5112 7.67502 17.51 7.80881 17.5074 7.93054C17.5074 7.9321 17.5074 7.93372 17.5074 7.93533L16.8966 7.84807C15.2375 7.61116 13.6708 6.82786 12.4854 5.64241C12.3938 5.55085 12.2696 5.49939 12.1401 5.49939C10.8288 5.49939 9.57353 6.09685 8.74375 7.10623C8.94824 5.11799 10.6291 3.54626 12.6797 3.54626ZM9.33447 13.4584C9.09004 12.6452 8.81035 10.2527 8.74853 8.71946L9.40571 7.84319C10.0093 7.0387 10.9483 6.53884 11.9472 6.48147C13.2615 7.73225 14.9618 8.55823 16.7585 8.81477L17.4774 8.91751C17.4293 9.93728 17.3312 10.9606 17.1905 11.9018C17.1904 11.9021 17.1904 11.9024 17.1903 11.9028C17.1456 12.2053 17.1104 12.4001 17.0203 12.944C16.7617 14.495 15.6044 15.8976 14.0766 16.2796C13.4479 16.4365 12.7854 16.4365 12.157 16.2796C11.2031 16.0411 10.3284 15.381 9.76387 14.4349H10.7593C10.9608 15.0032 11.5036 15.4115 12.1401 15.4115H13.1167C13.926 15.4115 14.5815 14.756 14.5815 13.9467C14.5815 13.1389 13.9244 12.4818 13.1167 12.4818H12.1401C11.4894 12.4818 10.9547 12.9021 10.7584 13.4584H9.33447ZM12.0991 17.2677C12.434 17.3383 12.7754 17.3744 13.1167 17.3744C13.3838 17.3744 13.651 17.352 13.9152 17.3087L13.0524 18.2211L12.0991 17.2677ZM12.3811 18.931L10.8324 20.5688C10.406 19.7527 10.0396 18.9033 9.73916 18.0338L10.3208 16.8706L12.3811 18.931ZM15.8299 16.7052L16.4941 18.0337C16.1932 18.9047 15.8267 19.7544 15.4008 20.5695L13.7432 18.9119L15.8299 16.7052ZM11.6519 13.9467C11.6519 13.6771 11.8705 13.4584 12.1401 13.4584H13.1167C13.3859 13.4584 13.605 13.6774 13.605 13.9467C13.605 14.2163 13.3863 14.4349 13.1167 14.4349H12.1401C11.8709 14.4349 11.6519 14.2159 11.6519 13.9467ZM2.88232 24.64C3.07583 22.2211 4.68564 20.0225 6.85215 19.3L8.90752 18.6151C9.28408 19.6563 9.75059 20.6684 10.2973 21.6297C10.2982 21.6314 10.2991 21.633 10.3 21.6346C10.3 21.6347 10.3001 21.6347 10.3001 21.6347C10.6996 22.3373 11.1492 23.0239 11.6366 23.6757L12.2373 24.64H2.88232ZM13.1167 24.2048L12.4545 23.1416C12.4471 23.1297 12.4392 23.1181 12.4308 23.1069C12.0354 22.5795 11.6665 22.0279 11.3306 21.4633L13.0719 19.6218L14.9068 21.4566C14.5686 22.0253 14.1985 22.5792 13.8027 23.1068C13.7788 23.1387 13.8127 23.0885 13.1167 24.2048ZM13.9961 24.64L14.5967 23.6758C15.0863 23.0215 15.5392 22.3294 15.9426 21.6185C15.9451 21.6142 15.9474 21.6098 15.9498 21.6055C15.9501 21.605 15.9504 21.6045 15.9507 21.604C16.4905 20.6518 16.9521 19.6486 17.3259 18.6151L19.3812 19.3C21.5478 20.0225 23.1576 22.2211 23.3511 24.64H13.9961Z" fill="black"/>
<path d="M21.8836 22.6635C21.5573 22.0103 21.0793 21.4301 20.5014 20.9854C20.2876 20.8209 19.981 20.8609 19.8166 21.0747C19.6522 21.2885 19.6922 21.595 19.9059 21.7595C20.3675 22.1146 20.7493 22.5781 21.01 23.0999C21.1307 23.3416 21.4242 23.4389 21.665 23.3185C21.9062 23.198 22.0041 22.9048 21.8836 22.6635Z" fill="black"/>
</g>
<defs>
<clipPath id="clip0">
<rect width="25" height="25" fill="white" transform="translate(0.616699 0.616577)"/>
</clipPath>
</defs>
</svg>
