<svg width="54" height="38" fill="none" xmlns="http://www.w3.org/2000/svg"><path d="M20.82 0h12.679c-.001 4.183.001 8.367-.001 12.55-4.227-.002-8.453.001-12.678-.001V0z" fill="#1C92D1"/><path d="M0 15.912c.062-.477.423-.936.923-.98.515-.053.97.344 1.142.808.496 1.217.998 2.431 1.488 3.65.063.161.16.306.263.444.54-1.174.989-2.388 1.49-3.579.19-.486.38-1.076.926-1.264.641-.272 1.353.324 1.347.986.015 1.743.001 3.485.007 5.228H6.435c.012-1.314.017-2.63.032-3.946 0-.262.029-.53-.04-.787l-.101.01c-.174.292-.272.618-.404.928-.463 1.133-.912 2.273-1.382 3.402-.166.46-.746.567-1.151.386-.25-.118-.355-.395-.455-.632-.484-1.223-.99-2.437-1.473-3.66a2.06 2.06 0 00-.28-.497c-.108.367-.06.752-.06 1.13.007 1.222.018 2.444.026 3.667H0v-5.293zM16.442 14.937h1.023v5.264c-.01.271.003.584-.18.807-.203.23-.535.19-.812.199-.625-.013-1.251.02-1.876-.018a1.418 1.418 0 01-1.197-.93c-.267-.735-.265-1.545-.164-2.312.088-.66.556-1.284 1.228-1.42.647-.125 1.312-.049 1.967-.058.025-.511.005-1.021.011-1.532zm-2.156 3.141a4.73 4.73 0 00.025 1.666c.08.364.421.628.787.642.396.016.797.035 1.19-.014.153-.036.144-.23.152-.351.006-.919-.002-1.838.003-2.756-.478.01-.96-.031-1.435.026-.394.052-.668.41-.722.787zM28.917 14.937h1.016v6.268h-1.016v-6.268zM33.243 15.172c.205-.216.52-.235.798-.236.978.004 1.956-.004 2.934.004.413.003.86.12 1.126.457.332.42.376.982.385 1.497-.004.535-.03 1.111-.337 1.57-.254.38-.734.528-1.173.52-.932-.002-1.866.003-2.799-.003-.015.74 0 1.482-.006 2.224h-1.146c-.002-1.771.001-3.544-.002-5.315-.001-.253.02-.537.22-.718zm.934.993c-.017.627 0 1.255-.005 1.882.785-.005 1.57.009 2.356-.007.287.005.603-.136.688-.434.12-.406.121-.851.011-1.26-.079-.313-.412-.465-.709-.461-.67-.012-1.344-.005-2.015-.004-.173-.029-.34.104-.326.284zM39.045 14.937c.333.001.669.002 1.004-.008.028 2.091.004 4.184.013 6.276h-1.018c0-2.089-.001-4.178.001-6.268zM8.735 16.866c.473-.388 1.117-.424 1.7-.425.574.006 1.216.027 1.671.427.469.408.526 1.09.48 1.67-.02.315-.26.631-.594.634-.928.018-1.857 0-2.786.009.028.317.001.675.202.945.177.229.487.27.757.272.762 0 1.525-.002 2.286 0v.808c-.886-.003-1.774.005-2.66-.004-.39-.003-.805-.082-1.098-.358-.35-.315-.47-.799-.51-1.252-.033-.5-.036-1.006.004-1.508.038-.45.181-.926.548-1.218zm1.083.44c-.476.114-.644.633-.614 1.07.74-.012 1.483.03 2.222-.018.249-.197.088-.609-.087-.814-.397-.383-1.023-.325-1.521-.237zM18.037 16.46c.338.002.677.002 1.016.002.002 1.58 0 3.162 0 4.743h-1.017V16.46zM20.095 17.032c.343-.409.893-.568 1.41-.57.676-.005 1.35 0 2.026 0 .002.266.002.533.001.8-.617.012-1.234-.02-1.85.018-.463.025-.89.38-.949.852-.068.563-.102 1.153.069 1.702.127.366.528.54.89.553.647.026 1.295.002 1.942.011.002.27.002.538 0 .808-.772-.005-1.544.007-2.316-.006-.537-.01-1.09-.255-1.38-.724-.325-.515-.307-1.152-.308-1.74.004-.59.07-1.236.465-1.704zM24.428 16.462c.858 0 1.716-.003 2.574 0 .377-.005.783.108 1.034.406.25.316.305.736.305 1.129v2.39c-.001.235-.03.505-.224.666-.214.166-.5.145-.755.154-.763-.009-1.527.012-2.289-.01a.921.921 0 01-.843-.603c-.165-.445-.17-.938-.102-1.404.064-.513.527-.935 1.046-.932.716-.022 1.433-.003 2.15-.008-.01-.27.046-.583-.148-.8-.154-.186-.413-.185-.632-.188-.706.002-1.412.002-2.117.002a66.93 66.93 0 010-.802zm.717 3.367c-.015.277.169.586.477.565.52 0 1.042.021 1.561-.011.03-.025.091-.073.123-.097.041-.41.007-.819.016-1.23-.593.008-1.188-.016-1.78.01-.377.021-.422.472-.397.763zM40.965 16.471c.838-.022 1.676-.003 2.514-.012.404-.01.85.096 1.114.427.297.393.295.914.293 1.386-.01.763.014 1.525-.01 2.287.007.33-.254.63-.59.633-.82.03-1.641.006-2.462.012-.353.014-.751-.085-.944-.409-.285-.47-.276-1.057-.214-1.585.06-.495.482-.924.985-.946.737-.035 1.477-.008 2.215-.014-.005-.28.047-.623-.182-.834-.149-.153-.377-.147-.573-.154l-2.14.001c.002-.264 0-.529-.006-.792zm.748 3.545c.029.282.323.415.577.382.485-.014.972.028 1.455-.022.027-.024.077-.072.104-.095.045-.406.007-.816.019-1.224-.619.012-1.238-.028-1.854.02-.39.113-.353.62-.3.94zM45.46 16.46c1.135.013 2.273-.02 3.41.016.487.079.57.74.302 1.08-.847.968-1.791 1.85-2.618 2.834.913.017 1.827.003 2.74.007v.809h-3.261c-.236.006-.516-.047-.639-.272a.844.844 0 01.153-.96c.776-.813 1.56-1.617 2.342-2.423.077-.081.136-.176.197-.271-.877-.037-1.754-.007-2.63-.016-.002-.27 0-.536.004-.803zM50.087 16.462l2.545-.002c.358-.003.738.083 1 .342.253.251.322.618.368.957v2.852c-.05.288-.251.566-.566.577-.816.042-1.637.006-2.454.018-.38.018-.817-.086-1.01-.45-.256-.473-.254-1.045-.185-1.565.065-.498.504-.92 1.01-.929.731-.034 1.463-.003 2.195-.013-.02-.277.035-.606-.179-.822-.163-.174-.42-.157-.637-.166-.697.002-1.393.004-2.088.002l.001-.801zm.713 3.188c-.018.276.032.662.358.732.458.038.919.004 1.378.017.14-.015.365.042.428-.13.044-.403.007-.809.019-1.212-.607.01-1.215-.021-1.821.014-.277.032-.368.341-.362.58z" fill="#fff"/><path d="M20.82 25.1c4.225-.003 8.45.001 12.676-.003.006 4.184 0 8.368.003 12.551h-12.68V25.1z" fill="#1C92D1"/></svg>
