<svg width="14" height="14" viewBox="0 0 14 14" fill="none" xmlns="http://www.w3.org/2000/svg">
<g clip-path="url(#clip0)">
<path d="M10.6436 9.2619C10.1862 8.81034 9.61519 8.81034 9.16072 9.2619C8.81404 9.60566 8.46736 9.94943 8.12651 10.299C8.03329 10.3952 7.95463 10.4156 7.84101 10.3515C7.61669 10.2291 7.3778 10.1301 7.16222 9.99604C6.15714 9.36386 5.31521 8.55106 4.56941 7.63629C4.19943 7.18182 3.87023 6.69531 3.64008 6.14761C3.59347 6.03691 3.60221 5.96408 3.69252 5.87377C4.0392 5.53874 4.37713 5.19497 4.71799 4.85121C5.19285 4.37343 5.19285 3.81409 4.71507 3.3334C4.44414 3.05955 4.17321 2.79153 3.90227 2.51768C3.6226 2.23801 3.34584 1.95542 3.06325 1.67866C2.60587 1.23293 2.03487 1.23293 1.5804 1.68157C1.23081 2.02534 0.895779 2.37784 0.540361 2.71578C0.211161 3.0275 0.045105 3.40914 0.0101458 3.85487C-0.0452063 4.58028 0.132503 5.26489 0.383044 5.93203C0.895779 7.31292 1.67654 8.53941 2.62335 9.66393C3.90227 11.1847 5.42882 12.3878 7.21466 13.256C8.01872 13.6464 8.85191 13.9464 9.75794 13.996C10.3814 14.0309 10.9232 13.8736 11.3573 13.3871C11.6545 13.055 11.9895 12.752 12.3041 12.4344C12.7703 11.9625 12.7732 11.3915 12.31 10.9254C11.7564 10.3689 11.2 9.81542 10.6436 9.2619Z" fill="#A6F97E"/>
<path d="M10.0872 6.93954L11.1622 6.75601C10.9932 5.76841 10.5271 4.87403 9.81916 4.1632C9.07045 3.41449 8.12364 2.94254 7.08069 2.79688L6.9292 3.8777C7.73617 3.99132 8.47032 4.35547 9.05006 4.93521C9.59775 5.48291 9.95608 6.17627 10.0872 6.93954Z" fill="#A6F97E"/>
<path d="M11.7682 2.26652C10.5272 1.02547 8.95691 0.241801 7.22351 0L7.07202 1.08082C8.56944 1.29058 9.92703 1.96937 10.9991 3.03854C12.0158 4.05527 12.683 5.34002 12.9248 6.75295L13.9998 6.56942C13.7172 4.93216 12.9452 3.4464 11.7682 2.26652Z" fill="#A6F97E"/>
</g>
<defs>
<clipPath id="clip0">
<rect width="14" height="14" fill="white"/>
</clipPath>
</defs>
</svg>
