<svg width="26" height="26" fill="none" xmlns="http://www.w3.org/2000/svg"><path d="M9.056 9.21h.832l2.329 1.331c.266.152.566.232.872.232a1.2 1.2 0 00.797-2.096l-.333-.296a3.519 3.519 0 014.756 1.805l.72-.305A4.294 4.294 0 0017.53 8.03c.294-.035.565-.179.76-.402a5.12 5.12 0 011.27 1.553l.69-.366a5.904 5.904 0 00-1.665-1.949v-.024a1.195 1.195 0 00-.408-.901l-1.154-1.01v-.933a1.938 1.938 0 00-.572-1.381l-.647-.647a1.94 1.94 0 00-1.381-.572H1.398v.78h2.734v5.079H1.398v.781h5.269a3.016 3.016 0 002.39 1.172zm6.014-1.953a4.276 4.276 0 00-2.14.57l-.61-.542a5.015 5.015 0 012.616-.806l1.115.891a4.315 4.315 0 00-.981-.113zm-3.66-.781h.735a5.93 5.93 0 00-.428.273l-.307-.273zM4.914 2.179h9.509a1.164 1.164 0 01.828.343l.648.647a1.165 1.165 0 01.343.829v.25l-.473-.414a1.953 1.953 0 00-1.286-.483h-2.148v.781h2.148c.284 0 .558.103.771.29l2.408 2.107a.416.416 0 01-.273.728.655.655 0 01-.408-.143L15.314 5.78a.39.39 0 00-.244-.085h-4.688a.39.39 0 00-.26.682l3.245 2.884a.418.418 0 01-.278.73.979.979 0 01-.485-.128L10.186 8.48a.39.39 0 00-.194-.051h-.936a2.237 2.237 0 01-1.864-.998.39.39 0 00-.325-.174h-.39V4.913h-.782v2.344h-.781V2.179zM10.859 10.695c-.057.283-.086.57-.086.86A4.273 4.273 0 0012 14.561l.558-.547a3.496 3.496 0 01-1.005-2.46c0-.237.023-.473.07-.704l-.765-.156z" fill="#000"/><path d="M5.695 3.351h.781v.781h-.781v-.781zM22.491 14.908a9.217 9.217 0 00-.473-2.886l-.563-1.688a1.072 1.072 0 00-2.088.339v1.11l-.115-.114a.392.392 0 00-.101-.073l-1.24-.62a.39.39 0 00-.45.073l-.553-.552a1.172 1.172 0 10-.552.552l.553.553a.39.39 0 00-.074.45l.62 1.24a.39.39 0 00.073.101l.318.318a3.518 3.518 0 01-4.534.889l-.39.676a4.31 4.31 0 003.609.321l-.904 1.005a5.083 5.083 0 01-5.454-6.397l-.753-.207a5.863 5.863 0 005.611 7.415 3.12 3.12 0 00-.352 1.44v5.983h.781v-1.172h5.079v1.172h.78v-4.63l.698-2.324.737.737a1.22 1.22 0 001.724-1.724l-1.987-1.987zm-7.03-4.916a.39.39 0 11.781 0 .39.39 0 01-.782 0zm4.687.68a.29.29 0 01.566-.091l.562 1.688c.197.588.328 1.197.39 1.814l-1.518-1.519v-1.891zm2.573 5.57l-.62.62-1.962-1.963c.006-.063.009-.126.009-.19a1.2 1.2 0 00-1.386-1.187l-.405-.405.62-.62 3.744 3.745zM17.814 11.8l.503.251-.406.405-.25-.502.153-.154zm3.54 5.572l-.799 2.663a.388.388 0 00-.016.112v1.172h-2.344v.781h2.344v.782H15.46v-4.03c0-.578.214-1.137.602-1.567l2.572-2.858a.42.42 0 01.733.28c0 .186-.038.37-.111.54l-1.03 2.403.719.307.944-2.204 1.5 1.5-.035.12zm2.262.822a.436.436 0 01-.31-.128l-.652-.653.619-.62.653.653a.439.439 0 01-.31.748z" fill="#000"/><path d="M16.632 21.32h.782v.781h-.782v-.781zM15.493 13.336l.39-.78.7.349-.391.78-.699-.349zM14.322 11.727l.698-.35.39.782-.698.349-.39-.78zM12.934 12.765l.78-.39.35.698-.78.39-.35-.698zM1.789 22.1h2.343a.39.39 0 00.391-.39v-2.182l.276-.276-.552-.552-1.953 1.953.552.552.896-.896v1.01H2.179v-1.562h.781v-.781H1.79a.39.39 0 00-.391.39v2.344a.39.39 0 00.39.39zM5.304 19.367H8.43v.78H5.304v-.78zM9.21 19.367h3.516v.78H9.21v-.78zM1.789 18.195h2.343a.39.39 0 00.391-.391v-2.182l.276-.276-.552-.553-1.953 1.953.552.553.896-.896v1.01H2.179v-1.562h.781v-.782H1.79a.39.39 0 00-.391.391v2.344a.39.39 0 00.39.39zM5.304 15.46h4.297v.782H5.304v-.782zM5.304 20.93h4.297v.78H5.304v-.78zM10.382 20.93h1.172v.78h-1.172v-.78zM5.304 17.023h1.563v.781H5.304v-.781zM7.648 17.023h3.516v.781H7.648v-.781z" fill="#000"/></svg>
