<svg width="26" height="26" viewBox="0 0 26 26" fill="none" xmlns="http://www.w3.org/2000/svg">
<path d="M20.5833 0H5.41667C2.42558 0 0 2.42558 0 5.41667V20.5833C0 23.5744 2.42558 26 5.41667 26H20.5833C23.5755 26 26 23.5744 26 20.5833V5.41667C26 2.42558 23.5755 0 20.5833 0ZM17.3333 7.58333H15.249C14.5828 7.58333 14.0833 7.85633 14.0833 8.54642V9.75H17.3333L17.0755 13H14.0833V21.6667H10.8333V13H8.66667V9.75H10.8333V7.66675C10.8333 5.47625 11.986 4.33333 14.5828 4.33333H17.3333V7.58333Z"/>
</svg>
