<svg width="26" height="26" fill="none" xmlns="http://www.w3.org/2000/svg"><g clip-path="url(#clip0)" fill="#000"><path d="M15.07 19.464a.488.488 0 100-.976.488.488 0 000 .976zM15.07 21.417a.488.488 0 100-.976.488.488 0 000 .976zM13.117 19.464a.488.488 0 100-.976.488.488 0 000 .976zM13.117 21.417a.488.488 0 100-.976.488.488 0 000 .976zM11.164 19.464a.488.488 0 100-.976.488.488 0 000 .976zM11.164 21.417a.488.488 0 100-.976.488.488 0 000 .976zM2.863 19.953c0 .807.657 1.464 1.465 1.464.807 0 1.464-.657 1.464-1.465 0-.807-.657-1.464-1.464-1.464-.808 0-1.465.657-1.465 1.465zm1.953 0a.489.489 0 11-.978-.002.489.489 0 01.978.002zM7.257 18.488a.488.488 0 00-.488.488v1.953a.488.488 0 10.977 0v-1.953a.488.488 0 00-.489-.488zM9.699 20.93v-1.954a.488.488 0 10-.977 0v1.953a.488.488 0 10.977 0zM3.058 6.769c.27 0 .488-.219.488-.488v-.489h1.758a.488.488 0 100-.976H3.058a.488.488 0 00-.488.488v.977c0 .27.218.488.488.488zM15.363 4.816h-2.246a.488.488 0 100 .976h1.757v.489a.488.488 0 10.977 0v-.977a.488.488 0 00-.488-.488zM5.304 12.628H3.546v-.488a.488.488 0 10-.976 0v.977c0 .27.218.488.488.488h2.246a.488.488 0 100-.977zM15.363 11.652a.488.488 0 00-.489.488v.488h-1.757a.488.488 0 100 .977h2.246c.27 0 .488-.219.488-.488v-.977a.488.488 0 00-.488-.488zM14.058 10.23l-2.78-4.17a.487.487 0 00-.821.014c-.27.435-.736.695-1.247.695-.51 0-.976-.26-1.246-.695a.488.488 0 00-.82-.014l-2.781 4.17a.488.488 0 00.089.642 7.326 7.326 0 009.517 0 .488.488 0 00.089-.642zM9.21 11.652a6.351 6.351 0 01-3.786-1.253l2.174-3.26c.439.387 1.007.607 1.612.607.606 0 1.174-.22 1.613-.607l2.174 3.26a6.351 6.351 0 01-3.787 1.253zM19.782 4.075a.488.488 0 10.178.96c.787-.145 1.54-.22 2.239-.22.698 0 1.451.075 2.239.22a.488.488 0 10.177-.96 13.368 13.368 0 00-2.416-.236c-.758 0-1.571.08-2.417.236zM22.199 5.792c-.468 0-.966.037-1.481.11a.488.488 0 10.135.966c.47-.066.924-.1 1.346-.1.422 0 .875.034 1.345.1a.488.488 0 00.136-.967 10.743 10.743 0 00-1.481-.109z"/><path d="M25.283 8.259c-.063-.021-1.558-.514-3.084-.514-1.527 0-3.022.493-3.084.514a.488.488 0 00-.334.463v3.418c0 .27.218.488.488.488h.488c.539 0 .977.438.977.977v3.418c0 .636.408 1.18.976 1.38v3.503a.489.489 0 01-.976 0v-.977c0-.808-.657-1.465-1.465-1.465h-1.465v-2.441a.488.488 0 00-.488-.488h-3.711v-.977h3.71c.27 0 .49-.219.49-.488V3.35a.488.488 0 00-.49-.487H1.106a.488.488 0 00-.488.488V15.07c0 .27.218.488.488.488h3.71v.977h-3.71a.488.488 0 00-.488.488v5.86c0 .269.218.488.488.488h5.908a.488.488 0 100-.977h-5.42V17.51h15.235v4.883h-5.42a.488.488 0 100 .977h5.908c.27 0 .488-.22.488-.489v-2.441h1.465c.27 0 .488.219.488.488v.977c0 .807.657 1.465 1.465 1.465s1.465-.658 1.465-1.465v-3.502c.568-.202.977-.745.977-1.381v-3.418c0-.539.438-.977.976-.977h.488c.27 0 .489-.218.489-.488V8.722a.488.488 0 00-.334-.463zM1.593 14.58V3.84h15.235v10.742H1.593zm11.035 1.954H5.792v-.977h6.836v.977zm12.012-4.883a1.955 1.955 0 00-1.953 1.953v3.418a.489.489 0 01-.977 0v-3.418a1.955 1.955 0 00-1.953-1.953v-.977h4.883v.977zm0-1.953h-4.883v-.612c.498-.136 1.478-.365 2.442-.365.963 0 1.944.229 2.441.365v.612z"/><path d="M9.21 23.37a.488.488 0 100-.976.488.488 0 000 .977z"/></g><defs><clipPath id="clip0"><path fill="#fff" transform="translate(.617 .617)" d="M0 0h25v25H0z"/></clipPath></defs></svg>
