<svg width="33" height="33" viewBox="0 0 33 33" fill="none" xmlns="http://www.w3.org/2000/svg">
<path d="M16.5 0C7.40135 0 0 7.40205 0 16.5C0 25.5979 7.40135 33 16.5 33C25.5987 33 33 25.5979 33 16.5C33 7.40205 25.5987 0 16.5 0ZM16.5 31.625C8.16002 31.625 1.37498 24.84 1.37498 16.5C1.37498 8.16002 8.16002 1.37498 16.5 1.37498C24.84 1.37498 31.625 8.16002 31.625 16.5C31.625 24.84 24.84 31.625 16.5 31.625Z"/>
<path d="M20.2705 16.1697L15.4582 12.634C15.3528 12.5554 15.2165 12.5512 15.1077 12.6194C14.9969 12.6885 14.9285 12.8205 14.9285 12.9643V20.0357C14.9285 20.1795 14.9969 20.3115 15.1077 20.3806C15.1588 20.4125 15.2158 20.4286 15.2722 20.4286C15.3367 20.4286 15.4018 20.4078 15.4582 20.366L20.2705 16.8303C20.3685 16.7582 20.4283 16.6335 20.4283 16.5C20.4283 16.3665 20.3685 16.2418 20.2705 16.1697ZM15.6159 19.316V13.6841L19.4488 16.5L15.6159 19.316Z"/>
<path d="M14.9285 13.3572L19.6428 16.8929L14.9285 20.4286V13.3572Z"/>
</svg>
