<svg width="25" height="26" fill="none" xmlns="http://www.w3.org/2000/svg"><path d="M12.492 14.432c-3.047-.103-3.778-2.816-3.934-3.692a1.317 1.317 0 01-.741-.49 1.594 1.594 0 01-.278-1.053 1.51 1.51 0 01.05-.602c.057-.195.152-.375.28-.529.072-.077.155-.142.246-.193a5.761 5.761 0 01-.8-3.174c.352-2.621 2.383-2.876 3.02-2.89a2.99 2.99 0 011.07-.822 3.637 3.637 0 012.426-.14c1.575.427 2.625 1.247 3.123 2.437.71 1.692.087 3.638-.27 4.513.136.046.262.12.369.22.145.154.255.34.32.545.066.204.085.422.057.636.034.374-.064.75-.277 1.054a1.32 1.32 0 01-.741.49c-.157.874-.886 3.587-3.92 3.69zM8.68 8.435a.447.447 0 00-.326.12.854.854 0 00-.139.63.375.375 0 01-.002.07.894.894 0 00.142.57.774.774 0 00.54.267c.077.01.15.046.203.104a.358.358 0 01.094.215c.011.13.31 3.217 3.3 3.32 2.973-.103 3.274-3.19 3.285-3.32a.358.358 0 01.095-.215.333.333 0 01.203-.104.747.747 0 00.54-.266.896.896 0 00.142-.574.379.379 0 01-.003-.068.87.87 0 00-.152-.645.498.498 0 00-.367-.1.326.326 0 01-.186-.02.34.34 0 01-.147-.12.36.36 0 01-.023-.373c.012-.024 1.25-2.467.454-4.365-.412-.981-1.31-1.666-2.672-2.036a2.983 2.983 0 00-1.984.106c-.36.16-.674.416-.91.74a.338.338 0 01-.133.111.323.323 0 01-.167.03c-.088-.008-2.156-.147-2.48 2.258 0 0-.094 1.913.971 3.073a.357.357 0 01.064.386.33.33 0 01-.127.158.31.31 0 01-.192.05l-.023-.002z" fill="#000"/><path d="M16.176 8.443a.331.331 0 01-.234-.097.358.358 0 01-.104-.24c-.004-.09-.109-2.213-1.632-2.417a4.954 4.954 0 01-2.08-.169 5.08 5.08 0 01-1.844-1.013c-.43.337-1.423 1.361-1.232 3.546a.36.36 0 01-.085.243.329.329 0 01-.461.044.354.354 0 01-.126-.224c-.28-3.204 1.699-4.317 1.783-4.363a.326.326 0 01.39.058 4.473 4.473 0 001.671.997c.62.203 1.274.265 1.919.181a.364.364 0 01.093-.003c1.718.186 2.243 2.105 2.28 3.092a.36.36 0 01-.09.252.333.333 0 01-.234.112l-.014.001zM21.99 25.297H3.01a.331.331 0 01-.238-.103.359.359 0 01-.1-.248v-3.917a4.772 4.772 0 011.32-3.3 4.41 4.41 0 013.174-1.366h.648c.09 0 .176.037.24.103a.359.359 0 010 .497.331.331 0 01-.24.102h-.648c-1.011.001-1.981.419-2.697 1.162a4.054 4.054 0 00-1.12 2.802v3.566h18.303v-3.566a4.05 4.05 0 00-1.118-2.801 3.743 3.743 0 00-2.694-1.163h-.695a.331.331 0 01-.239-.102.359.359 0 010-.497.331.331 0 01.24-.103h.694c1.19.002 2.33.494 3.171 1.369a4.77 4.77 0 011.316 3.297v3.917a.359.359 0 01-.099.248.331.331 0 01-.239.103z" fill="#000"/><path d="M13.629 25.297a.327.327 0 01-.256-.122.356.356 0 01-.078-.281l1.367-9.41a.36.36 0 01.153-.245.33.33 0 01.278-.04l2.36.74a.334.334 0 01.212.197.363.363 0 01-.007.295l-.938 1.957.544.635a.359.359 0 01.034.418l-3.382 5.69a.344.344 0 01-.123.122.327.327 0 01-.164.044zm1.643-9.308l-1.062 7.313 2.382-4.005-.528-.617a.358.358 0 01-.05-.39l.86-1.797-1.602-.504zM11.332 25.297a.328.328 0 01-.164-.044.345.345 0 01-.123-.122l-3.383-5.689a.362.362 0 01.033-.418l.544-.635-.938-1.957a.363.363 0 01.079-.418.334.334 0 01.127-.074l2.36-.74a.325.325 0 01.277.04.344.344 0 01.153.244l1.368 9.41a.364.364 0 01-.078.281.34.34 0 01-.255.122zM8.37 19.295l2.383 4.006-1.063-7.312-1.603.503.86 1.796a.364.364 0 01-.05.39l-.527.617z" fill="#000"/><path d="M12.506 18.746c-.73 0-1.46-.046-2.186-.137a.327.327 0 01-.232-.13.356.356 0 01-.072-.262.362.362 0 01.13-.237.334.334 0 01.255-.069c1.38.177 2.777.177 4.157 0a.329.329 0 01.246.074.362.362 0 01.06.489.335.335 0 01-.221.134c-.71.093-1.423.139-2.137.138zM14.997 15.887a.327.327 0 01-.27-.142c-.503-.706-.594-2.105-.602-2.262a.36.36 0 01.085-.254.333.333 0 01.233-.117.334.334 0 01.243.09.361.361 0 01.113.24c.021.37.146 1.429.47 1.885a.36.36 0 01-.093.507.328.328 0 01-.177.053h-.002zM9.964 15.887a.328.328 0 01-.176-.053.347.347 0 01-.124-.14.363.363 0 01.03-.367c.325-.457.45-1.516.47-1.885a.36.36 0 01.113-.242.334.334 0 01.245-.089.329.329 0 01.233.117.355.355 0 01.085.255c-.008.157-.101 1.556-.601 2.262a.34.34 0 01-.275.142zM19.31 20.373a.331.331 0 01-.236-.1.358.358 0 01-.103-.241c-.063-2.288-.9-3.008-.907-3.015a.364.364 0 01-.059-.492.326.326 0 01.468-.067c.044.034 1.1.887 1.174 3.553a.36.36 0 01-.092.251.332.332 0 01-.235.11h-.01z" fill="#000"/><path d="M19.31 22.447a1.3 1.3 0 01-.741-.234c-.22-.152-.391-.37-.492-.623a1.44 1.44 0 01-.076-.802c.051-.27.178-.517.365-.712a1.32 1.32 0 01.684-.38c.259-.054.527-.026.772.08.244.104.452.282.599.51a1.43 1.43 0 01-.166 1.754c-.25.26-.59.407-.944.407zm0-2.075c-.13 0-.257.04-.366.116a.681.681 0 00-.243.307.712.712 0 00.143.748.637.637 0 00.72.149.666.666 0 00.295-.253.705.705 0 00-.082-.866.648.648 0 00-.466-.2zM5.433 20.373a.33.33 0 01-.23-.094.357.357 0 01-.108-.233c-.184-2.696 1.245-3.558 1.306-3.594a.326.326 0 01.257-.032.34.34 0 01.203.166.364.364 0 01.031.267.35.35 0 01-.159.211c-.051.032-1.115.715-.964 2.933a.36.36 0 01-.082.255.334.334 0 01-.231.12h-.023z" fill="#000"/><path d="M4.75 23.186a.328.328 0 01-.27-.139 2.232 2.232 0 01-.358-.754 2.188 2.188 0 01.143-1.6A2.053 2.053 0 015.45 19.66a1.821 1.821 0 011.453.187c.382.23.688.575.876.99.189.416.25.88.178 1.334a.353.353 0 01-.137.228.328.328 0 01-.471-.082.362.362 0 01-.059-.262 1.61 1.61 0 00-.12-.913 1.533 1.533 0 00-.598-.682 1.19 1.19 0 00-.938-.124c-.339.118-.62.37-.78.7-.161.332-.19.716-.081 1.07.049.187.132.362.245.516a.36.36 0 01-.09.511.328.328 0 01-.178.053z" fill="#000"/><path d="M7.627 22.465c-.013 0-.027 0-.04-.002l-.381-.047a.328.328 0 01-.226-.131.357.357 0 01-.07-.26.361.361 0 01.127-.234.329.329 0 01.249-.073l.38.047c.086.01.164.055.22.124a.36.36 0 01-.028.48.331.331 0 01-.231.096zM4.75 23.19a.33.33 0 01-.217-.082.363.363 0 01-.077-.444.341.341 0 01.176-.156l.406-.155a.326.326 0 01.365.09.355.355 0 01.09.251.363.363 0 01-.107.245.337.337 0 01-.112.072l-.405.156a.327.327 0 01-.12.022z" fill="#000"/></svg>
