<svg width="26" height="26" fill="none" xmlns="http://www.w3.org/2000/svg"><path d="M9.318 9.992h7.324a.293.293 0 000-.586H9.318a.293.293 0 000 .586zM6.36 9.645l-.652.622-.264-.264a.293.293 0 10-.414.414l.467.467a.292.292 0 00.41.005l.857-.82a.292.292 0 10-.405-.424z" fill="#000"/><path d="M5.9 8.277a1.988 1.988 0 100 3.977 1.988 1.988 0 000-3.977zm0 3.391a1.403 1.403 0 110-2.805 1.403 1.403 0 010 2.805zM9.318 14.874h7.324a.293.293 0 000-.585H9.318a.293.293 0 100 .585zM6.36 14.527l-.652.623-.264-.264a.295.295 0 00-.417-.003.294.294 0 00.003.417l.467.467a.292.292 0 00.41.004l.857-.82a.292.292 0 10-.405-.424z" fill="#000"/><path d="M5.9 13.16a1.99 1.99 0 100 3.978 1.99 1.99 0 000-3.978zm0 3.39a1.402 1.402 0 110-2.804 1.402 1.402 0 010 2.805zM6.36 19.41l-.652.623-.264-.264a.292.292 0 00-.417-.003.294.294 0 00.003.417l.467.467a.293.293 0 00.41.004l.857-.82a.292.292 0 10-.405-.424z" fill="#000"/><path d="M5.9 18.043a1.988 1.988 0 100 3.977 1.988 1.988 0 000-3.977zm0 3.39a1.402 1.402 0 110-2.805 1.402 1.402 0 010 2.806zM9.318 10.968h3.906a.293.293 0 100-.586H9.318a.293.293 0 000 .586zM9.318 15.851h3.906a.293.293 0 100-.586H9.318a.293.293 0 000 .586zM3.498 5.212a.293.293 0 00-.293.293v.307a.293.293 0 00.586 0v-.307a.293.293 0 00-.293-.293zM3.498 6.447a.293.293 0 00-.293.293v2.832a.293.293 0 00.586 0V6.74a.293.293 0 00-.293-.293z" fill="#000"/><path d="M22.944 13.688a1.514 1.514 0 00-1.146.219l-3.017 1.981V4.895c0-.97-.797-1.74-1.766-1.74h-1.848v-.909a.293.293 0 00-.585 0v.91h-2.49v-.91a.293.293 0 00-.587 0v.91H9.064v-.91a.293.293 0 00-.586 0v.91h-2.49v-.91a.293.293 0 10-.586 0v.91h-1.57a1.737 1.737 0 00-1.75 1.74v17.626c0 .97.78 1.776 1.75 1.776h13.183c.97 0 1.766-.807 1.766-1.776v-2.986l4.692-3.082a1.525 1.525 0 00-.529-2.766zM14.858 4.99a.518.518 0 110 1.037.518.518 0 010-1.037zm-3.053 0a.518.518 0 110 1.037.518.518 0 010-1.037zm-3.053 0a.518.518 0 110 1.036.518.518 0 010-1.036zm-3.053 0a.518.518 0 110 1.036.518.518 0 010-1.036zm12.496 17.532a1.195 1.195 0 01-1.18 1.19H3.83c-.646 0-1.164-.544-1.164-1.19V4.895a1.151 1.151 0 011.164-1.153h1.57v.702c-.439.129-.808.557-.808 1.065a1.104 1.104 0 102.208 0 1.083 1.083 0 00-.813-1.065v-.702h2.49v.702a1.09 1.09 0 00-.82 1.065 1.105 1.105 0 102.21 0 1.133 1.133 0 00-.804-1.065v-.702h2.441v.702c-.44.129-.807.557-.807 1.065a1.104 1.104 0 002.207 0 1.083 1.083 0 00-.814-1.065v-.702h2.49v.702a1.089 1.089 0 00-.819 1.065 1.105 1.105 0 102.21 0c0-.508-.365-.936-.804-1.065v-.702h1.847c.646 0 1.18.507 1.18 1.153v11.378l-1.1.723a.292.292 0 10.321.49l4.356-2.861.355.539-7.381 4.847-.354-.54 1.386-.91a.293.293 0 00-.321-.49l-1.63 1.071-.01.007a.304.304 0 00-.021.016l-.007.006H9.318a.293.293 0 000 .586h4.141l-.207.392a.309.309 0 00-.028-.001H9.318a.293.293 0 100 .586h3.624l-.339.64a.293.293 0 00.26.43h.007l2.476-.065.018-.002c.006 0 .012 0 .019-.002.008 0 .015-.003.023-.005l.016-.003a.306.306 0 00.038-.015c.003 0 .006-.003.008-.004a.285.285 0 00.028-.016l.003-.001 2.696-1.77v2.601zm-3.39-1.355l-1.45.038.658-1.242.791 1.204zm.617-.127l-.022-.034-.332-.505 7.38-4.847.355.54-7.38 4.846zm7.862-5.181l-1.013-1.543a.945.945 0 01.979.153.94.94 0 01.034 1.39z" fill="#000"/></svg>
