<?xml version="1.0" encoding="UTF-8"?><!DOCTYPE svg PUBLIC "-//W3C//DTD SVG 1.1//EN" "http://www.w3.org/Graphics/SVG/1.1/DTD/svg11.dtd"><svg xmlns="http://www.w3.org/2000/svg" xmlns:xlink="http://www.w3.org/1999/xlink"><defs><clipPath id="clip0"><path fill="#fff" transform="translate(.617 .617)" d="M0 0h25v25H0z"/></clipPath>
<clipPath id="clip0">
<rect width="25" height="25" fill="white" transform="translate(0.616699 0.616577)"/>
</clipPath>
<clipPath id="clip0"><path fill="#fff" d="M0 0h25v25H0z"/></clipPath>
<clipPath id="clip0">
<rect width="21" height="21" fill="white"/>
</clipPath>

<linearGradient id="paint0_linear" x1="1.868" y1="27.1477" x2="28.8204" y2="3.8207" gradientUnits="userSpaceOnUse">
<stop stop-color="#FFDD55"/>
<stop offset="0.5" stop-color="#FF543E"/>
<stop offset="1" stop-color="#C837AB"/>
</linearGradient>
<clipPath id="clip0">
<rect width="29" height="29" fill="white"/>
</clipPath>
</defs><symbol id="icon-about-list-1"><path d="M9.056 9.21h.832l2.329 1.331c.266.152.566.232.872.232a1.2 1.2 0 00.797-2.096l-.333-.296a3.519 3.519 0 014.756 1.805l.72-.305A4.294 4.294 0 0017.53 8.03c.294-.035.565-.179.76-.402a5.12 5.12 0 011.27 1.553l.69-.366a5.904 5.904 0 00-1.665-1.949v-.024a1.195 1.195 0 00-.408-.901l-1.154-1.01v-.933a1.938 1.938 0 00-.572-1.381l-.647-.647a1.94 1.94 0 00-1.381-.572H1.398v.78h2.734v5.079H1.398v.781h5.269a3.016 3.016 0 002.39 1.172zm6.014-1.953a4.276 4.276 0 00-2.14.57l-.61-.542a5.015 5.015 0 012.616-.806l1.115.891a4.315 4.315 0 00-.981-.113zm-3.66-.781h.735a5.93 5.93 0 00-.428.273l-.307-.273zM4.914 2.179h9.509a1.164 1.164 0 01.828.343l.648.647a1.165 1.165 0 01.343.829v.25l-.473-.414a1.953 1.953 0 00-1.286-.483h-2.148v.781h2.148c.284 0 .558.103.771.29l2.408 2.107a.416.416 0 01-.273.728.655.655 0 01-.408-.143L15.314 5.78a.39.39 0 00-.244-.085h-4.688a.39.39 0 00-.26.682l3.245 2.884a.418.418 0 01-.278.73.979.979 0 01-.485-.128L10.186 8.48a.39.39 0 00-.194-.051h-.936a2.237 2.237 0 01-1.864-.998.39.39 0 00-.325-.174h-.39V4.913h-.782v2.344h-.781V2.179zM10.859 10.695c-.057.283-.086.57-.086.86A4.273 4.273 0 0012 14.561l.558-.547a3.496 3.496 0 01-1.005-2.46c0-.237.023-.473.07-.704l-.765-.156z" fill="#000"/><path d="M5.695 3.351h.781v.781h-.781v-.781zM22.491 14.908a9.217 9.217 0 00-.473-2.886l-.563-1.688a1.072 1.072 0 00-2.088.339v1.11l-.115-.114a.392.392 0 00-.101-.073l-1.24-.62a.39.39 0 00-.45.073l-.553-.552a1.172 1.172 0 10-.552.552l.553.553a.39.39 0 00-.074.45l.62 1.24a.39.39 0 00.073.101l.318.318a3.518 3.518 0 01-4.534.889l-.39.676a4.31 4.31 0 003.609.321l-.904 1.005a5.083 5.083 0 01-5.454-6.397l-.753-.207a5.863 5.863 0 005.611 7.415 3.12 3.12 0 00-.352 1.44v5.983h.781v-1.172h5.079v1.172h.78v-4.63l.698-2.324.737.737a1.22 1.22 0 001.724-1.724l-1.987-1.987zm-7.03-4.916a.39.39 0 11.781 0 .39.39 0 01-.782 0zm4.687.68a.29.29 0 01.566-.091l.562 1.688c.197.588.328 1.197.39 1.814l-1.518-1.519v-1.891zm2.573 5.57l-.62.62-1.962-1.963c.006-.063.009-.126.009-.19a1.2 1.2 0 00-1.386-1.187l-.405-.405.62-.62 3.744 3.745zM17.814 11.8l.503.251-.406.405-.25-.502.153-.154zm3.54 5.572l-.799 2.663a.388.388 0 00-.016.112v1.172h-2.344v.781h2.344v.782H15.46v-4.03c0-.578.214-1.137.602-1.567l2.572-2.858a.42.42 0 01.733.28c0 .186-.038.37-.111.54l-1.03 2.403.719.307.944-2.204 1.5 1.5-.035.12zm2.262.822a.436.436 0 01-.31-.128l-.652-.653.619-.62.653.653a.439.439 0 01-.31.748z" fill="#000"/><path d="M16.632 21.32h.782v.781h-.782v-.781zM15.493 13.336l.39-.78.7.349-.391.78-.699-.349zM14.322 11.727l.698-.35.39.782-.698.349-.39-.78zM12.934 12.765l.78-.39.35.698-.78.39-.35-.698zM1.789 22.1h2.343a.39.39 0 00.391-.39v-2.182l.276-.276-.552-.552-1.953 1.953.552.552.896-.896v1.01H2.179v-1.562h.781v-.781H1.79a.39.39 0 00-.391.39v2.344a.39.39 0 00.39.39zM5.304 19.367H8.43v.78H5.304v-.78zM9.21 19.367h3.516v.78H9.21v-.78zM1.789 18.195h2.343a.39.39 0 00.391-.391v-2.182l.276-.276-.552-.553-1.953 1.953.552.553.896-.896v1.01H2.179v-1.562h.781v-.782H1.79a.39.39 0 00-.391.391v2.344a.39.39 0 00.39.39zM5.304 15.46h4.297v.782H5.304v-.782zM5.304 20.93h4.297v.78H5.304v-.78zM10.382 20.93h1.172v.78h-1.172v-.78zM5.304 17.023h1.563v.781H5.304v-.781zM7.648 17.023h3.516v.781H7.648v-.781z" fill="#000"/></symbol><symbol id="icon-about-list-2"><path d="M12.492 14.432c-3.047-.103-3.778-2.816-3.934-3.692a1.317 1.317 0 01-.741-.49 1.594 1.594 0 01-.278-1.053 1.51 1.51 0 01.05-.602c.057-.195.152-.375.28-.529.072-.077.155-.142.246-.193a5.761 5.761 0 01-.8-3.174c.352-2.621 2.383-2.876 3.02-2.89a2.99 2.99 0 011.07-.822 3.637 3.637 0 012.426-.14c1.575.427 2.625 1.247 3.123 2.437.71 1.692.087 3.638-.27 4.513.136.046.262.12.369.22.145.154.255.34.32.545.066.204.085.422.057.636.034.374-.064.75-.277 1.054a1.32 1.32 0 01-.741.49c-.157.874-.886 3.587-3.92 3.69zM8.68 8.435a.447.447 0 00-.326.12.854.854 0 00-.139.63.375.375 0 01-.002.07.894.894 0 00.142.57.774.774 0 00.54.267c.077.01.15.046.203.104a.358.358 0 01.094.215c.011.13.31 3.217 3.3 3.32 2.973-.103 3.274-3.19 3.285-3.32a.358.358 0 01.095-.215.333.333 0 01.203-.104.747.747 0 00.54-.266.896.896 0 00.142-.574.379.379 0 01-.003-.068.87.87 0 00-.152-.645.498.498 0 00-.367-.1.326.326 0 01-.186-.02.34.34 0 01-.147-.12.36.36 0 01-.023-.373c.012-.024 1.25-2.467.454-4.365-.412-.981-1.31-1.666-2.672-2.036a2.983 2.983 0 00-1.984.106c-.36.16-.674.416-.91.74a.338.338 0 01-.133.111.323.323 0 01-.167.03c-.088-.008-2.156-.147-2.48 2.258 0 0-.094 1.913.971 3.073a.357.357 0 01.064.386.33.33 0 01-.127.158.31.31 0 01-.192.05l-.023-.002z" fill="#000"/><path d="M16.176 8.443a.331.331 0 01-.234-.097.358.358 0 01-.104-.24c-.004-.09-.109-2.213-1.632-2.417a4.954 4.954 0 01-2.08-.169 5.08 5.08 0 01-1.844-1.013c-.43.337-1.423 1.361-1.232 3.546a.36.36 0 01-.085.243.329.329 0 01-.461.044.354.354 0 01-.126-.224c-.28-3.204 1.699-4.317 1.783-4.363a.326.326 0 01.39.058 4.473 4.473 0 001.671.997c.62.203 1.274.265 1.919.181a.364.364 0 01.093-.003c1.718.186 2.243 2.105 2.28 3.092a.36.36 0 01-.09.252.333.333 0 01-.234.112l-.014.001zM21.99 25.297H3.01a.331.331 0 01-.238-.103.359.359 0 01-.1-.248v-3.917a4.772 4.772 0 011.32-3.3 4.41 4.41 0 013.174-1.366h.648c.09 0 .176.037.24.103a.359.359 0 010 .497.331.331 0 01-.24.102h-.648c-1.011.001-1.981.419-2.697 1.162a4.054 4.054 0 00-1.12 2.802v3.566h18.303v-3.566a4.05 4.05 0 00-1.118-2.801 3.743 3.743 0 00-2.694-1.163h-.695a.331.331 0 01-.239-.102.359.359 0 010-.497.331.331 0 01.24-.103h.694c1.19.002 2.33.494 3.171 1.369a4.77 4.77 0 011.316 3.297v3.917a.359.359 0 01-.099.248.331.331 0 01-.239.103z" fill="#000"/><path d="M13.629 25.297a.327.327 0 01-.256-.122.356.356 0 01-.078-.281l1.367-9.41a.36.36 0 01.153-.245.33.33 0 01.278-.04l2.36.74a.334.334 0 01.212.197.363.363 0 01-.007.295l-.938 1.957.544.635a.359.359 0 01.034.418l-3.382 5.69a.344.344 0 01-.123.122.327.327 0 01-.164.044zm1.643-9.308l-1.062 7.313 2.382-4.005-.528-.617a.358.358 0 01-.05-.39l.86-1.797-1.602-.504zM11.332 25.297a.328.328 0 01-.164-.044.345.345 0 01-.123-.122l-3.383-5.689a.362.362 0 01.033-.418l.544-.635-.938-1.957a.363.363 0 01.079-.418.334.334 0 01.127-.074l2.36-.74a.325.325 0 01.277.04.344.344 0 01.153.244l1.368 9.41a.364.364 0 01-.078.281.34.34 0 01-.255.122zM8.37 19.295l2.383 4.006-1.063-7.312-1.603.503.86 1.796a.364.364 0 01-.05.39l-.527.617z" fill="#000"/><path d="M12.506 18.746c-.73 0-1.46-.046-2.186-.137a.327.327 0 01-.232-.13.356.356 0 01-.072-.262.362.362 0 01.13-.237.334.334 0 01.255-.069c1.38.177 2.777.177 4.157 0a.329.329 0 01.246.074.362.362 0 01.06.489.335.335 0 01-.221.134c-.71.093-1.423.139-2.137.138zM14.997 15.887a.327.327 0 01-.27-.142c-.503-.706-.594-2.105-.602-2.262a.36.36 0 01.085-.254.333.333 0 01.233-.117.334.334 0 01.243.09.361.361 0 01.113.24c.021.37.146 1.429.47 1.885a.36.36 0 01-.093.507.328.328 0 01-.177.053h-.002zM9.964 15.887a.328.328 0 01-.176-.053.347.347 0 01-.124-.14.363.363 0 01.03-.367c.325-.457.45-1.516.47-1.885a.36.36 0 01.113-.242.334.334 0 01.245-.089.329.329 0 01.233.117.355.355 0 01.085.255c-.008.157-.101 1.556-.601 2.262a.34.34 0 01-.275.142zM19.31 20.373a.331.331 0 01-.236-.1.358.358 0 01-.103-.241c-.063-2.288-.9-3.008-.907-3.015a.364.364 0 01-.059-.492.326.326 0 01.468-.067c.044.034 1.1.887 1.174 3.553a.36.36 0 01-.092.251.332.332 0 01-.235.11h-.01z" fill="#000"/><path d="M19.31 22.447a1.3 1.3 0 01-.741-.234c-.22-.152-.391-.37-.492-.623a1.44 1.44 0 01-.076-.802c.051-.27.178-.517.365-.712a1.32 1.32 0 01.684-.38c.259-.054.527-.026.772.08.244.104.452.282.599.51a1.43 1.43 0 01-.166 1.754c-.25.26-.59.407-.944.407zm0-2.075c-.13 0-.257.04-.366.116a.681.681 0 00-.243.307.712.712 0 00.143.748.637.637 0 00.72.149.666.666 0 00.295-.253.705.705 0 00-.082-.866.648.648 0 00-.466-.2zM5.433 20.373a.33.33 0 01-.23-.094.357.357 0 01-.108-.233c-.184-2.696 1.245-3.558 1.306-3.594a.326.326 0 01.257-.032.34.34 0 01.203.166.364.364 0 01.031.267.35.35 0 01-.159.211c-.051.032-1.115.715-.964 2.933a.36.36 0 01-.082.255.334.334 0 01-.231.12h-.023z" fill="#000"/><path d="M4.75 23.186a.328.328 0 01-.27-.139 2.232 2.232 0 01-.358-.754 2.188 2.188 0 01.143-1.6A2.053 2.053 0 015.45 19.66a1.821 1.821 0 011.453.187c.382.23.688.575.876.99.189.416.25.88.178 1.334a.353.353 0 01-.137.228.328.328 0 01-.471-.082.362.362 0 01-.059-.262 1.61 1.61 0 00-.12-.913 1.533 1.533 0 00-.598-.682 1.19 1.19 0 00-.938-.124c-.339.118-.62.37-.78.7-.161.332-.19.716-.081 1.07.049.187.132.362.245.516a.36.36 0 01-.09.511.328.328 0 01-.178.053z" fill="#000"/><path d="M7.627 22.465c-.013 0-.027 0-.04-.002l-.381-.047a.328.328 0 01-.226-.131.357.357 0 01-.07-.26.361.361 0 01.127-.234.329.329 0 01.249-.073l.38.047c.086.01.164.055.22.124a.36.36 0 01-.028.48.331.331 0 01-.231.096zM4.75 23.19a.33.33 0 01-.217-.082.363.363 0 01-.077-.444.341.341 0 01.176-.156l.406-.155a.326.326 0 01.365.09.355.355 0 01.09.251.363.363 0 01-.107.245.337.337 0 01-.112.072l-.405.156a.327.327 0 01-.12.022z" fill="#000"/></symbol><symbol id="icon-about-list-3"><g clip-path="url(#clip0)" fill="#000"><path d="M15.07 19.464a.488.488 0 100-.976.488.488 0 000 .976zM15.07 21.417a.488.488 0 100-.976.488.488 0 000 .976zM13.117 19.464a.488.488 0 100-.976.488.488 0 000 .976zM13.117 21.417a.488.488 0 100-.976.488.488 0 000 .976zM11.164 19.464a.488.488 0 100-.976.488.488 0 000 .976zM11.164 21.417a.488.488 0 100-.976.488.488 0 000 .976zM2.863 19.953c0 .807.657 1.464 1.465 1.464.807 0 1.464-.657 1.464-1.465 0-.807-.657-1.464-1.464-1.464-.808 0-1.465.657-1.465 1.465zm1.953 0a.489.489 0 11-.978-.002.489.489 0 01.978.002zM7.257 18.488a.488.488 0 00-.488.488v1.953a.488.488 0 10.977 0v-1.953a.488.488 0 00-.489-.488zM9.699 20.93v-1.954a.488.488 0 10-.977 0v1.953a.488.488 0 10.977 0zM3.058 6.769c.27 0 .488-.219.488-.488v-.489h1.758a.488.488 0 100-.976H3.058a.488.488 0 00-.488.488v.977c0 .27.218.488.488.488zM15.363 4.816h-2.246a.488.488 0 100 .976h1.757v.489a.488.488 0 10.977 0v-.977a.488.488 0 00-.488-.488zM5.304 12.628H3.546v-.488a.488.488 0 10-.976 0v.977c0 .27.218.488.488.488h2.246a.488.488 0 100-.977zM15.363 11.652a.488.488 0 00-.489.488v.488h-1.757a.488.488 0 100 .977h2.246c.27 0 .488-.219.488-.488v-.977a.488.488 0 00-.488-.488zM14.058 10.23l-2.78-4.17a.487.487 0 00-.821.014c-.27.435-.736.695-1.247.695-.51 0-.976-.26-1.246-.695a.488.488 0 00-.82-.014l-2.781 4.17a.488.488 0 00.089.642 7.326 7.326 0 009.517 0 .488.488 0 00.089-.642zM9.21 11.652a6.351 6.351 0 01-3.786-1.253l2.174-3.26c.439.387 1.007.607 1.612.607.606 0 1.174-.22 1.613-.607l2.174 3.26a6.351 6.351 0 01-3.787 1.253zM19.782 4.075a.488.488 0 10.178.96c.787-.145 1.54-.22 2.239-.22.698 0 1.451.075 2.239.22a.488.488 0 10.177-.96 13.368 13.368 0 00-2.416-.236c-.758 0-1.571.08-2.417.236zM22.199 5.792c-.468 0-.966.037-1.481.11a.488.488 0 10.135.966c.47-.066.924-.1 1.346-.1.422 0 .875.034 1.345.1a.488.488 0 00.136-.967 10.743 10.743 0 00-1.481-.109z"/><path d="M25.283 8.259c-.063-.021-1.558-.514-3.084-.514-1.527 0-3.022.493-3.084.514a.488.488 0 00-.334.463v3.418c0 .27.218.488.488.488h.488c.539 0 .977.438.977.977v3.418c0 .636.408 1.18.976 1.38v3.503a.489.489 0 01-.976 0v-.977c0-.808-.657-1.465-1.465-1.465h-1.465v-2.441a.488.488 0 00-.488-.488h-3.711v-.977h3.71c.27 0 .49-.219.49-.488V3.35a.488.488 0 00-.49-.487H1.106a.488.488 0 00-.488.488V15.07c0 .27.218.488.488.488h3.71v.977h-3.71a.488.488 0 00-.488.488v5.86c0 .269.218.488.488.488h5.908a.488.488 0 100-.977h-5.42V17.51h15.235v4.883h-5.42a.488.488 0 100 .977h5.908c.27 0 .488-.22.488-.489v-2.441h1.465c.27 0 .488.219.488.488v.977c0 .807.657 1.465 1.465 1.465s1.465-.658 1.465-1.465v-3.502c.568-.202.977-.745.977-1.381v-3.418c0-.539.438-.977.976-.977h.488c.27 0 .489-.218.489-.488V8.722a.488.488 0 00-.334-.463zM1.593 14.58V3.84h15.235v10.742H1.593zm11.035 1.954H5.792v-.977h6.836v.977zm12.012-4.883a1.955 1.955 0 00-1.953 1.953v3.418a.489.489 0 01-.977 0v-3.418a1.955 1.955 0 00-1.953-1.953v-.977h4.883v.977zm0-1.953h-4.883v-.612c.498-.136 1.478-.365 2.442-.365.963 0 1.944.229 2.441.365v.612z"/><path d="M9.21 23.37a.488.488 0 100-.976.488.488 0 000 .977z"/></g></symbol><symbol id="icon-about-list-4" viewBox="0 0 26 26">
<g clip-path="url(#clip0)">
<path d="M18.4878 19.9525C18.2183 19.9525 17.9995 20.1713 17.9995 20.4408C17.9995 20.7103 18.2183 20.9291 18.4878 20.9291C18.7573 20.9291 18.9761 20.7103 18.9761 20.4408C18.9761 20.1713 18.7573 19.9525 18.4878 19.9525Z" fill="black"/>
<path d="M19.69 18.3736L17.3692 17.6001L16.5361 15.9338C17.2867 15.1698 17.8078 14.159 17.9835 13.1046L18.0875 12.4818H18.9761C19.7838 12.4818 20.4409 11.8247 20.4409 11.017V7.9408C20.4409 3.90222 17.1553 0.616577 13.1167 0.616577C9.06777 0.616577 5.79248 3.8928 5.79248 7.9408V11.017C5.79248 11.6535 6.20073 12.1963 6.76904 12.3978V12.9701C6.76904 13.7778 7.42617 14.4349 8.23389 14.4349H8.6627C8.87437 14.8948 9.14834 15.3206 9.48174 15.7032C9.55088 15.7827 9.623 15.8597 9.69688 15.9347L8.86416 17.6001L6.54331 18.3736C3.84482 19.2734 1.88623 22.1142 1.88623 25.1283C1.88623 25.398 2.10483 25.6166 2.37451 25.6166H23.8589C24.1285 25.6166 24.3472 25.398 24.3472 25.1283C24.3472 22.1142 22.3886 19.2734 19.69 18.3736ZM19.4644 11.017C19.4644 11.2862 19.2453 11.5052 18.9761 11.5052H18.2309C18.355 10.5438 18.4377 9.52073 18.4709 8.51306C18.4719 8.48464 18.4727 8.45701 18.4736 8.42908H19.4644V11.017ZM7.25732 11.5052C6.98809 11.5052 6.76904 11.2862 6.76904 11.017V8.42908H7.76016C7.76177 8.48 7.76348 8.53118 7.76538 8.58269C7.76543 8.58445 7.76553 8.58616 7.76558 8.58792C7.76558 8.58806 7.76558 8.58821 7.76558 8.58835C7.79976 9.56843 7.8814 10.565 8.00269 11.5052H7.25732V11.5052ZM8.23389 13.4584C7.96465 13.4584 7.74561 13.2393 7.74561 12.9701V12.4818H8.1459L8.2498 13.1048C8.26963 13.2232 8.29399 13.3412 8.32217 13.4584H8.23389ZM7.74644 7.45251H6.7876C7.03491 4.18 9.76597 1.59314 13.1167 1.59314C16.4525 1.59314 19.1956 4.17966 19.4458 7.45251H18.487C18.4519 4.75588 16.2559 2.5697 13.5538 2.5697H12.6797C9.97764 2.5697 7.78154 4.75588 7.74644 7.45251ZM12.6797 3.54626H13.5537C15.7417 3.54626 17.5125 5.33586 17.5112 7.52136C17.5112 7.67502 17.51 7.80881 17.5074 7.93054C17.5074 7.9321 17.5074 7.93372 17.5074 7.93533L16.8966 7.84807C15.2375 7.61116 13.6708 6.82786 12.4854 5.64241C12.3938 5.55085 12.2696 5.49939 12.1401 5.49939C10.8288 5.49939 9.57353 6.09685 8.74375 7.10623C8.94824 5.11799 10.6291 3.54626 12.6797 3.54626ZM9.33447 13.4584C9.09004 12.6452 8.81035 10.2527 8.74853 8.71946L9.40571 7.84319C10.0093 7.0387 10.9483 6.53884 11.9472 6.48147C13.2615 7.73225 14.9618 8.55823 16.7585 8.81477L17.4774 8.91751C17.4293 9.93728 17.3312 10.9606 17.1905 11.9018C17.1904 11.9021 17.1904 11.9024 17.1903 11.9028C17.1456 12.2053 17.1104 12.4001 17.0203 12.944C16.7617 14.495 15.6044 15.8976 14.0766 16.2796C13.4479 16.4365 12.7854 16.4365 12.157 16.2796C11.2031 16.0411 10.3284 15.381 9.76387 14.4349H10.7593C10.9608 15.0032 11.5036 15.4115 12.1401 15.4115H13.1167C13.926 15.4115 14.5815 14.756 14.5815 13.9467C14.5815 13.1389 13.9244 12.4818 13.1167 12.4818H12.1401C11.4894 12.4818 10.9547 12.9021 10.7584 13.4584H9.33447ZM12.0991 17.2677C12.434 17.3383 12.7754 17.3744 13.1167 17.3744C13.3838 17.3744 13.651 17.352 13.9152 17.3087L13.0524 18.2211L12.0991 17.2677ZM12.3811 18.931L10.8324 20.5688C10.406 19.7527 10.0396 18.9033 9.73916 18.0338L10.3208 16.8706L12.3811 18.931ZM15.8299 16.7052L16.4941 18.0337C16.1932 18.9047 15.8267 19.7544 15.4008 20.5695L13.7432 18.9119L15.8299 16.7052ZM11.6519 13.9467C11.6519 13.6771 11.8705 13.4584 12.1401 13.4584H13.1167C13.3859 13.4584 13.605 13.6774 13.605 13.9467C13.605 14.2163 13.3863 14.4349 13.1167 14.4349H12.1401C11.8709 14.4349 11.6519 14.2159 11.6519 13.9467ZM2.88232 24.64C3.07583 22.2211 4.68564 20.0225 6.85215 19.3L8.90752 18.6151C9.28408 19.6563 9.75059 20.6684 10.2973 21.6297C10.2982 21.6314 10.2991 21.633 10.3 21.6346C10.3 21.6347 10.3001 21.6347 10.3001 21.6347C10.6996 22.3373 11.1492 23.0239 11.6366 23.6757L12.2373 24.64H2.88232ZM13.1167 24.2048L12.4545 23.1416C12.4471 23.1297 12.4392 23.1181 12.4308 23.1069C12.0354 22.5795 11.6665 22.0279 11.3306 21.4633L13.0719 19.6218L14.9068 21.4566C14.5686 22.0253 14.1985 22.5792 13.8027 23.1068C13.7788 23.1387 13.8127 23.0885 13.1167 24.2048ZM13.9961 24.64L14.5967 23.6758C15.0863 23.0215 15.5392 22.3294 15.9426 21.6185C15.9451 21.6142 15.9474 21.6098 15.9498 21.6055C15.9501 21.605 15.9504 21.6045 15.9507 21.604C16.4905 20.6518 16.9521 19.6486 17.3259 18.6151L19.3812 19.3C21.5478 20.0225 23.1576 22.2211 23.3511 24.64H13.9961Z" fill="black"/>
<path d="M21.8836 22.6635C21.5573 22.0103 21.0793 21.4301 20.5014 20.9854C20.2876 20.8209 19.981 20.8609 19.8166 21.0747C19.6522 21.2885 19.6922 21.595 19.9059 21.7595C20.3675 22.1146 20.7493 22.5781 21.01 23.0999C21.1307 23.3416 21.4242 23.4389 21.665 23.3185C21.9062 23.198 22.0041 22.9048 21.8836 22.6635Z" fill="black"/>
</g>

</symbol><symbol id="icon-about-list-5"><path d="M9.318 9.992h7.324a.293.293 0 000-.586H9.318a.293.293 0 000 .586zM6.36 9.645l-.652.622-.264-.264a.293.293 0 10-.414.414l.467.467a.292.292 0 00.41.005l.857-.82a.292.292 0 10-.405-.424z" fill="#000"/><path d="M5.9 8.277a1.988 1.988 0 100 3.977 1.988 1.988 0 000-3.977zm0 3.391a1.403 1.403 0 110-2.805 1.403 1.403 0 010 2.805zM9.318 14.874h7.324a.293.293 0 000-.585H9.318a.293.293 0 100 .585zM6.36 14.527l-.652.623-.264-.264a.295.295 0 00-.417-.003.294.294 0 00.003.417l.467.467a.292.292 0 00.41.004l.857-.82a.292.292 0 10-.405-.424z" fill="#000"/><path d="M5.9 13.16a1.99 1.99 0 100 3.978 1.99 1.99 0 000-3.978zm0 3.39a1.402 1.402 0 110-2.804 1.402 1.402 0 010 2.805zM6.36 19.41l-.652.623-.264-.264a.292.292 0 00-.417-.003.294.294 0 00.003.417l.467.467a.293.293 0 00.41.004l.857-.82a.292.292 0 10-.405-.424z" fill="#000"/><path d="M5.9 18.043a1.988 1.988 0 100 3.977 1.988 1.988 0 000-3.977zm0 3.39a1.402 1.402 0 110-2.805 1.402 1.402 0 010 2.806zM9.318 10.968h3.906a.293.293 0 100-.586H9.318a.293.293 0 000 .586zM9.318 15.851h3.906a.293.293 0 100-.586H9.318a.293.293 0 000 .586zM3.498 5.212a.293.293 0 00-.293.293v.307a.293.293 0 00.586 0v-.307a.293.293 0 00-.293-.293zM3.498 6.447a.293.293 0 00-.293.293v2.832a.293.293 0 00.586 0V6.74a.293.293 0 00-.293-.293z" fill="#000"/><path d="M22.944 13.688a1.514 1.514 0 00-1.146.219l-3.017 1.981V4.895c0-.97-.797-1.74-1.766-1.74h-1.848v-.909a.293.293 0 00-.585 0v.91h-2.49v-.91a.293.293 0 00-.587 0v.91H9.064v-.91a.293.293 0 00-.586 0v.91h-2.49v-.91a.293.293 0 10-.586 0v.91h-1.57a1.737 1.737 0 00-1.75 1.74v17.626c0 .97.78 1.776 1.75 1.776h13.183c.97 0 1.766-.807 1.766-1.776v-2.986l4.692-3.082a1.525 1.525 0 00-.529-2.766zM14.858 4.99a.518.518 0 110 1.037.518.518 0 010-1.037zm-3.053 0a.518.518 0 110 1.037.518.518 0 010-1.037zm-3.053 0a.518.518 0 110 1.036.518.518 0 010-1.036zm-3.053 0a.518.518 0 110 1.036.518.518 0 010-1.036zm12.496 17.532a1.195 1.195 0 01-1.18 1.19H3.83c-.646 0-1.164-.544-1.164-1.19V4.895a1.151 1.151 0 011.164-1.153h1.57v.702c-.439.129-.808.557-.808 1.065a1.104 1.104 0 102.208 0 1.083 1.083 0 00-.813-1.065v-.702h2.49v.702a1.09 1.09 0 00-.82 1.065 1.105 1.105 0 102.21 0 1.133 1.133 0 00-.804-1.065v-.702h2.441v.702c-.44.129-.807.557-.807 1.065a1.104 1.104 0 002.207 0 1.083 1.083 0 00-.814-1.065v-.702h2.49v.702a1.089 1.089 0 00-.819 1.065 1.105 1.105 0 102.21 0c0-.508-.365-.936-.804-1.065v-.702h1.847c.646 0 1.18.507 1.18 1.153v11.378l-1.1.723a.292.292 0 10.321.49l4.356-2.861.355.539-7.381 4.847-.354-.54 1.386-.91a.293.293 0 00-.321-.49l-1.63 1.071-.01.007a.304.304 0 00-.021.016l-.007.006H9.318a.293.293 0 000 .586h4.141l-.207.392a.309.309 0 00-.028-.001H9.318a.293.293 0 100 .586h3.624l-.339.64a.293.293 0 00.26.43h.007l2.476-.065.018-.002c.006 0 .012 0 .019-.002.008 0 .015-.003.023-.005l.016-.003a.306.306 0 00.038-.015c.003 0 .006-.003.008-.004a.285.285 0 00.028-.016l.003-.001 2.696-1.77v2.601zm-3.39-1.355l-1.45.038.658-1.242.791 1.204zm.617-.127l-.022-.034-.332-.505 7.38-4.847.355.54-7.38 4.846zm7.862-5.181l-1.013-1.543a.945.945 0 01.979.153.94.94 0 01.034 1.39z" fill="#000"/></symbol><symbol id="icon-about-list-6"><g clip-path="url(#clip0)" fill="#000"><path d="M22.265 12.888a9.93 9.93 0 00-.148-1.708l-.812.142a9.07 9.07 0 01-3.73 8.988l-.665-1.084a1.23 1.23 0 01-.052-1.2l.188-.375a.41.41 0 01.368-.227h.581c.507.001.963-.307 1.15-.778l.557-1.395c.059-.146.09-.302.089-.46v-.907a.82.82 0 00-.242-.583l-.495-.495a.824.824 0 00-.952-.155l-1.014.508a.412.412 0 01-.37 0l-1.648-.825a.41.41 0 01-.227-.367v-1.14a.825.825 0 00-.825-.825.412.412 0 01-.412-.412v-.412c0-.13.061-.252.165-.33l1.32-.99-.495-.66-1.32.99c-.31.234-.493.6-.495.99v.412c0 .683.554 1.237 1.237 1.237v1.14a1.23 1.23 0 00.684 1.106l1.65.824c.348.174.757.174 1.106 0l1.015-.507.494.495v.907c0 .052-.01.104-.03.153l-.558 1.396a.41.41 0 01-.382.259h-.582a1.23 1.23 0 00-1.106.684l-.187.375a2.05 2.05 0 00.086 1.999l.672 1.097a9.038 9.038 0 01-8.293.375l.506-.338a.414.414 0 01.228-.07h1.057c.328.001.643-.13.875-.362l1.166-1.166a1.23 1.23 0 00.362-.875v-1.904c0-.224-.06-.443-.175-.635l-.88-1.473a1.244 1.244 0 00-1.057-.594H9.512c-.414 0-.801.206-1.031.55l-.456.687H7.01a.825.825 0 00-.824.825v.787c0 .14-.072.27-.19.346l-1.286.83a9.016 9.016 0 01-1.4-5.262h.717c.156 0 .299.088.368.228l.483.968a.82.82 0 00.738.453h.435a.824.824 0 00.794-1.051l-.525-1.835h.814c.28 0 .553-.096.772-.271L9.251 9.89a1.24 1.24 0 00.364-1.453L8.91 6.79a.412.412 0 01.168-.516l1.038-.623c.376-.227.604-.636.6-1.076l-.007-.603a9.053 9.053 0 014.006.151l.212-.795a9.896 9.896 0 107.339 9.561zM9.885 4.166l.005.42a.411.411 0 01-.2.358l-1.04.623c-.528.32-.741.98-.5 1.549l.707 1.65a.413.413 0 01-.122.484L7.39 10.326a.412.412 0 01-.257.088h-.814a.824.824 0 00-.794 1.052l.525 1.835h-.435l-.483-.966a1.23 1.23 0 00-1.106-.684h-.641a9.093 9.093 0 016.5-7.485zM5.183 18.413l1.26-.812c.353-.227.567-.619.566-1.039v-.788h1.016a.824.824 0 00.687-.367l.457-.686a.412.412 0 01.343-.183h1.157c.143 0 .275.074.35.195l.88 1.47a.41.41 0 01.058.212v1.904c0 .11-.043.214-.12.292l-1.167 1.166a.411.411 0 01-.292.12H9.321c-.245 0-.484.073-.687.209l-.88.587a9.143 9.143 0 01-2.571-2.28zM.853 13.29l-.823.057c.02.28.049.562.087.839l.817-.113a11.764 11.764 0 01-.081-.783zM2.103 7.19l-.733-.38c-.129.248-.25.507-.362.765l.757.327c.105-.241.219-.48.338-.713zM1.069 14.849l-.808.17c.058.274.124.55.202.82l.793-.225c-.07-.252-.134-.508-.187-.765zM1.058 10.153L.25 9.988c-.056.274-.103.554-.14.833l.817.109c.035-.26.079-.522.131-.777zM2.92 5.842l-.674-.475a12.5 12.5 0 00-.462.707l.705.427c.136-.225.281-.446.431-.66zM1.479 8.635L.7 8.362c-.094.266-.179.536-.253.805l.795.22c.069-.25.148-.503.236-.752zM.85 11.714l-.825-.054c-.017.27-.025.541-.025.816v.026l.825-.026c0-.256.008-.51.025-.762zM1.496 16.365l-.776.277c.095.265.199.529.31.784l.756-.33a11.692 11.692 0 01-.29-.731zM3.912 4.617l-.604-.561c-.19.206-.377.42-.553.637l.64.52c.165-.203.339-.404.517-.596zM10.761 1.043l-.115-.817c-.276.038-.556.087-.832.145l.17.808c.257-.055.518-.1.777-.136zM12.331.931l-.003-.824c-.282 0-.566.011-.843.03l.058.825c.26-.02.523-.03.788-.03zM9.218 1.367L8.994.573c-.268.076-.539.163-.804.258l.28.776c.246-.089.498-.17.748-.24zM5.06 3.54L4.54 2.9c-.217.177-.43.365-.635.556l.565.601c.19-.179.39-.353.592-.519zM7.738 1.898l-.33-.755c-.255.111-.51.234-.76.364l.382.731c.231-.122.47-.235.708-.34zM6.344 2.626l-.432-.703c-.239.147-.475.304-.703.466l.478.672c.213-.15.433-.298.657-.435zM16.977 23.065l.33.755c.256-.111.512-.234.76-.363l-.38-.731c-.232.12-.47.234-.71.339zM20.808 20.354l.603.563c.191-.206.378-.42.555-.636l-.64-.521c-.165.203-.34.403-.518.594zM19.658 21.43l.521.639c.217-.177.43-.364.636-.555l-.563-.603c-.192.18-.39.352-.594.518zM21.804 19.132l.673.477c.162-.229.318-.466.464-.706l-.705-.428a12.5 12.5 0 01-.432.657zM18.373 22.339l.428.704c.239-.146.476-.302.705-.464l-.477-.672c-.212.15-.434.296-.656.432zM15.496 23.592l.222.795c.27-.076.54-.162.805-.256l-.278-.777c-.247.09-.498.168-.75.238zM23.888 13.264l.822.055c.02-.28.029-.563.029-.843h-.825c0 .265-.009.527-.026.788zM23.675 14.824l.808.165c.057-.274.104-.554.142-.832l-.817-.111c-.035.261-.08.523-.133.778zM23.252 16.34l.777.276c.094-.265.18-.536.255-.805l-.794-.221c-.07.25-.15.503-.238.75zM22.623 17.786l.732.38c.13-.248.251-.506.363-.763l-.756-.33c-.104.241-.219.48-.339.713zM2.125 17.805l-.731.382c.13.247.27.495.415.733l.706-.43a10.92 10.92 0 01-.39-.685zM4.577 22.083c.218.178.445.349.672.51l.475-.675a12.08 12.08 0 01-.63-.476l-.517.64zM7.455 23.83c.256.112.52.216.787.31l.275-.777a12.033 12.033 0 01-.733-.289l-.329.757zM5.955 23.054c.24.147.489.286.737.413l.379-.733c-.232-.12-.463-.25-.688-.386l-.428.706zM3.34 20.931c.192.206.394.406.597.596l.563-.603a11.72 11.72 0 01-.559-.556l-.601.563zM2.947 19.148l-.673.477c.162.229.334.454.511.671l.637-.522a11.62 11.62 0 01-.475-.626zM13.954 23.913l.111.817c.277-.038.557-.086.832-.143l-.167-.808c-.258.053-.518.098-.776.134zM10.7 24.734c.276.037.558.065.84.082l.054-.824a11.526 11.526 0 01-.783-.08l-.111.822zM12.381 24.02v.825c.283 0 .566-.01.844-.029l-.056-.824c-.26.02-.523.029-.788.029z"/><path d="M9.047 24.394c.271.075.548.142.821.198l.165-.807a11.477 11.477 0 01-.765-.185l-.22.794zM15.75 3.586l-.237 4.033a2.064 2.064 0 00.6 1.579l.8.799 1.456-3.788L19.84 7.68V9.5c-.001.328.13.642.362.873l.715.716.874-1.458.21.21a1.237 1.237 0 101.75-1.75l-.21-.209L25 7.007l-.715-.716a1.227 1.227 0 00-.875-.362h-1.82l-1.47-1.471L23.91 3l-.801-.8a2.058 2.058 0 00-1.579-.6l-4.032.237L16.172.51a1.267 1.267 0 00-1.75 0 1.237 1.237 0 000 1.75l1.328 1.326zm.852 4.922a1.24 1.24 0 01-.266-.841l.194-3.299 1.202 1.203-1.13 2.937zm4.153 1.247a.416.416 0 01-.09-.258v-.994l.527.527-.437.725zm2.655-3.003c.093 0 .184.032.258.09l-.727.439-.526-.526.995-.003zm-1.832-4.329c.304-.018.604.077.842.266l-2.94 1.13-1.202-1.202 3.3-.194zm-6.573-1.33c.161-.16.422-.16.583 0l7.58 7.581c.16.161.16.422 0 .583a.422.422 0 01-.583 0l-7.58-7.58a.412.412 0 010-.583z"/></g></symbol><symbol id="icon-center-button-play" viewBox="0 0 33 33">
<path d="M16.5 0C7.40135 0 0 7.40205 0 16.5C0 25.5979 7.40135 33 16.5 33C25.5987 33 33 25.5979 33 16.5C33 7.40205 25.5987 0 16.5 0ZM16.5 31.625C8.16002 31.625 1.37498 24.84 1.37498 16.5C1.37498 8.16002 8.16002 1.37498 16.5 1.37498C24.84 1.37498 31.625 8.16002 31.625 16.5C31.625 24.84 24.84 31.625 16.5 31.625Z" fill="black"/>
<path d="M20.2705 16.1697L15.4582 12.634C15.3528 12.5554 15.2165 12.5512 15.1077 12.6194C14.9969 12.6885 14.9285 12.8205 14.9285 12.9643V20.0357C14.9285 20.1795 14.9969 20.3115 15.1077 20.3806C15.1588 20.4125 15.2158 20.4286 15.2722 20.4286C15.3367 20.4286 15.4018 20.4078 15.4582 20.366L20.2705 16.8303C20.3685 16.7582 20.4283 16.6335 20.4283 16.5C20.4283 16.3665 20.3685 16.2418 20.2705 16.1697ZM15.6159 19.316V13.6841L19.4488 16.5L15.6159 19.316Z" fill="black"/>
<path d="M14.9285 13.3572L19.6428 16.8929L14.9285 20.4286V13.3572Z" fill="black"/>
</symbol><symbol id="icon-center-item-1"><path d="M20.82 0h12.679c-.001 4.183.001 8.367-.001 12.55-4.227-.002-8.453.001-12.678-.001V0z" fill="#1C92D1"/><path d="M0 15.912c.062-.477.423-.936.923-.98.515-.053.97.344 1.142.808.496 1.217.998 2.431 1.488 3.65.063.161.16.306.263.444.54-1.174.989-2.388 1.49-3.579.19-.486.38-1.076.926-1.264.641-.272 1.353.324 1.347.986.015 1.743.001 3.485.007 5.228H6.435c.012-1.314.017-2.63.032-3.946 0-.262.029-.53-.04-.787l-.101.01c-.174.292-.272.618-.404.928-.463 1.133-.912 2.273-1.382 3.402-.166.46-.746.567-1.151.386-.25-.118-.355-.395-.455-.632-.484-1.223-.99-2.437-1.473-3.66a2.06 2.06 0 00-.28-.497c-.108.367-.06.752-.06 1.13.007 1.222.018 2.444.026 3.667H0v-5.293zM16.442 14.937h1.023v5.264c-.01.271.003.584-.18.807-.203.23-.535.19-.812.199-.625-.013-1.251.02-1.876-.018a1.418 1.418 0 01-1.197-.93c-.267-.735-.265-1.545-.164-2.312.088-.66.556-1.284 1.228-1.42.647-.125 1.312-.049 1.967-.058.025-.511.005-1.021.011-1.532zm-2.156 3.141a4.73 4.73 0 00.025 1.666c.08.364.421.628.787.642.396.016.797.035 1.19-.014.153-.036.144-.23.152-.351.006-.919-.002-1.838.003-2.756-.478.01-.96-.031-1.435.026-.394.052-.668.41-.722.787zM28.917 14.937h1.016v6.268h-1.016v-6.268zM33.243 15.172c.205-.216.52-.235.798-.236.978.004 1.956-.004 2.934.004.413.003.86.12 1.126.457.332.42.376.982.385 1.497-.004.535-.03 1.111-.337 1.57-.254.38-.734.528-1.173.52-.932-.002-1.866.003-2.799-.003-.015.74 0 1.482-.006 2.224h-1.146c-.002-1.771.001-3.544-.002-5.315-.001-.253.02-.537.22-.718zm.934.993c-.017.627 0 1.255-.005 1.882.785-.005 1.57.009 2.356-.007.287.005.603-.136.688-.434.12-.406.121-.851.011-1.26-.079-.313-.412-.465-.709-.461-.67-.012-1.344-.005-2.015-.004-.173-.029-.34.104-.326.284zM39.045 14.937c.333.001.669.002 1.004-.008.028 2.091.004 4.184.013 6.276h-1.018c0-2.089-.001-4.178.001-6.268zM8.735 16.866c.473-.388 1.117-.424 1.7-.425.574.006 1.216.027 1.671.427.469.408.526 1.09.48 1.67-.02.315-.26.631-.594.634-.928.018-1.857 0-2.786.009.028.317.001.675.202.945.177.229.487.27.757.272.762 0 1.525-.002 2.286 0v.808c-.886-.003-1.774.005-2.66-.004-.39-.003-.805-.082-1.098-.358-.35-.315-.47-.799-.51-1.252-.033-.5-.036-1.006.004-1.508.038-.45.181-.926.548-1.218zm1.083.44c-.476.114-.644.633-.614 1.07.74-.012 1.483.03 2.222-.018.249-.197.088-.609-.087-.814-.397-.383-1.023-.325-1.521-.237zM18.037 16.46c.338.002.677.002 1.016.002.002 1.58 0 3.162 0 4.743h-1.017V16.46zM20.095 17.032c.343-.409.893-.568 1.41-.57.676-.005 1.35 0 2.026 0 .002.266.002.533.001.8-.617.012-1.234-.02-1.85.018-.463.025-.89.38-.949.852-.068.563-.102 1.153.069 1.702.127.366.528.54.89.553.647.026 1.295.002 1.942.011.002.27.002.538 0 .808-.772-.005-1.544.007-2.316-.006-.537-.01-1.09-.255-1.38-.724-.325-.515-.307-1.152-.308-1.74.004-.59.07-1.236.465-1.704zM24.428 16.462c.858 0 1.716-.003 2.574 0 .377-.005.783.108 1.034.406.25.316.305.736.305 1.129v2.39c-.001.235-.03.505-.224.666-.214.166-.5.145-.755.154-.763-.009-1.527.012-2.289-.01a.921.921 0 01-.843-.603c-.165-.445-.17-.938-.102-1.404.064-.513.527-.935 1.046-.932.716-.022 1.433-.003 2.15-.008-.01-.27.046-.583-.148-.8-.154-.186-.413-.185-.632-.188-.706.002-1.412.002-2.117.002a66.93 66.93 0 010-.802zm.717 3.367c-.015.277.169.586.477.565.52 0 1.042.021 1.561-.011.03-.025.091-.073.123-.097.041-.41.007-.819.016-1.23-.593.008-1.188-.016-1.78.01-.377.021-.422.472-.397.763zM40.965 16.471c.838-.022 1.676-.003 2.514-.012.404-.01.85.096 1.114.427.297.393.295.914.293 1.386-.01.763.014 1.525-.01 2.287.007.33-.254.63-.59.633-.82.03-1.641.006-2.462.012-.353.014-.751-.085-.944-.409-.285-.47-.276-1.057-.214-1.585.06-.495.482-.924.985-.946.737-.035 1.477-.008 2.215-.014-.005-.28.047-.623-.182-.834-.149-.153-.377-.147-.573-.154l-2.14.001c.002-.264 0-.529-.006-.792zm.748 3.545c.029.282.323.415.577.382.485-.014.972.028 1.455-.022.027-.024.077-.072.104-.095.045-.406.007-.816.019-1.224-.619.012-1.238-.028-1.854.02-.39.113-.353.62-.3.94zM45.46 16.46c1.135.013 2.273-.02 3.41.016.487.079.57.74.302 1.08-.847.968-1.791 1.85-2.618 2.834.913.017 1.827.003 2.74.007v.809h-3.261c-.236.006-.516-.047-.639-.272a.844.844 0 01.153-.96c.776-.813 1.56-1.617 2.342-2.423.077-.081.136-.176.197-.271-.877-.037-1.754-.007-2.63-.016-.002-.27 0-.536.004-.803zM50.087 16.462l2.545-.002c.358-.003.738.083 1 .342.253.251.322.618.368.957v2.852c-.05.288-.251.566-.566.577-.816.042-1.637.006-2.454.018-.38.018-.817-.086-1.01-.45-.256-.473-.254-1.045-.185-1.565.065-.498.504-.92 1.01-.929.731-.034 1.463-.003 2.195-.013-.02-.277.035-.606-.179-.822-.163-.174-.42-.157-.637-.166-.697.002-1.393.004-2.088.002l.001-.801zm.713 3.188c-.018.276.032.662.358.732.458.038.919.004 1.378.017.14-.015.365.042.428-.13.044-.403.007-.809.019-1.212-.607.01-1.215-.021-1.821.014-.277.032-.368.341-.362.58z" fill="#fff"/><path d="M20.82 25.1c4.225-.003 8.45.001 12.676-.003.006 4.184 0 8.368.003 12.551h-12.68V25.1z" fill="#1C92D1"/></symbol><symbol id="icon-header-phone" viewBox="0 0 21 21">
<g clip-path="url(#clip0)">
<path d="M15.9654 13.893C15.2793 13.2157 14.4228 13.2157 13.7411 13.893C13.2211 14.4087 12.701 14.9243 12.1898 15.4487C12.0499 15.5929 11.9319 15.6235 11.7615 15.5274C11.425 15.3438 11.0667 15.1952 10.7433 14.9942C9.23571 14.046 7.97281 12.8268 6.85412 11.4546C6.29914 10.7729 5.80534 10.0431 5.46012 9.22159C5.3902 9.05553 5.40331 8.94628 5.53877 8.81082C6.05879 8.30828 6.5657 7.79263 7.07698 7.27698C7.78927 6.56032 7.78927 5.7213 7.07261 5.00026C6.66621 4.58949 6.25981 4.18746 5.85341 3.77669C5.4339 3.35718 5.01876 2.9333 4.59488 2.51816C3.9088 1.84956 3.0523 1.84956 2.3706 2.52253C1.84621 3.03818 1.34367 3.56693 0.810541 4.07384C0.316742 4.54142 0.0676576 5.11388 0.0152187 5.78247C-0.0678094 6.87058 0.198755 7.89751 0.574566 8.89821C1.34367 10.9695 2.5148 12.8093 3.93502 14.4961C5.85341 16.7771 8.14324 18.5819 10.822 19.8841C12.0281 20.4697 13.2779 20.9198 14.6369 20.9941C15.5721 21.0465 16.3849 20.8106 17.036 20.0808C17.4817 19.5826 17.9843 19.1282 18.4562 18.6518C19.1554 17.9439 19.1598 17.0874 18.4649 16.3882C17.6347 15.5536 16.8 14.7233 15.9654 13.893Z" fill="#A6F97E"/>
<path d="M15.131 10.4091L16.7435 10.1338C16.4901 8.65241 15.7909 7.31085 14.729 6.24459C13.6059 5.12153 12.1857 4.4136 10.6213 4.19511L10.394 5.81634C11.6045 5.98677 12.7057 6.533 13.5753 7.40261C14.3969 8.22416 14.9344 9.26419 15.131 10.4091Z" fill="#A6F97E"/>
<path d="M17.6527 3.39978C15.7911 1.53821 13.4357 0.362702 10.8356 0L10.6084 1.62123C12.8545 1.93587 14.8909 2.95405 16.499 4.55781C18.0241 6.0829 19.0248 8.01003 19.3875 10.1294L21 9.85413C20.5762 7.39824 19.4181 5.16959 17.6527 3.39978Z" fill="#A6F97E"/>
</g>

</symbol><symbol id="icon-inst" viewBox="0 0 29 29">
<g clip-path="url(#clip0)">
<path d="M1.8124 1.97319C-0.466522 4.34032 -0.000105076 6.85486 -0.000105076 14.4939C-0.000105076 20.8377 -1.10694 27.1971 4.68581 28.6943C6.49469 29.1595 22.522 29.1595 24.3285 28.6919C26.7403 28.0696 28.7027 26.1133 28.9709 22.7022C29.0084 22.2261 29.0084 6.77028 28.9697 6.28453C28.6845 2.65107 26.4479 0.557027 23.5008 0.132902C22.8253 0.0350265 22.69 0.00602652 19.2245 -1.51508e-05C6.9321 0.00602652 4.23752 -0.541349 1.8124 1.97319Z" fill="url(#paint0_linear)"/>
<path d="M14.4975 3.7928C10.1101 3.7928 5.94373 3.40251 4.35235 7.48668C3.69502 9.17351 3.79048 11.3642 3.79048 14.5011C3.79048 17.2536 3.70227 19.8407 4.35235 21.5142C5.9401 25.6008 10.1403 25.2093 14.4951 25.2093C18.6965 25.2093 23.0284 25.6467 24.6391 21.5142C25.2976 19.8105 25.2009 17.6524 25.2009 14.5011C25.2009 10.3178 25.4317 7.61718 23.4029 5.5896C21.3488 3.53543 18.5708 3.7928 14.4927 3.7928H14.4975ZM13.5381 5.72251C22.69 5.70801 23.8548 4.6906 23.212 18.8245C22.9836 23.8234 19.1774 23.2748 14.4987 23.2748C5.9679 23.2748 5.7226 23.0307 5.7226 14.4962C5.7226 5.86268 6.39927 5.72735 13.5381 5.7201V5.72251ZM20.2129 7.49997C19.5036 7.49997 18.9285 8.07514 18.9285 8.78443C18.9285 9.49372 19.5036 10.0689 20.2129 10.0689C20.9222 10.0689 21.4974 9.49372 21.4974 8.78443C21.4974 8.07514 20.9222 7.49997 20.2129 7.49997ZM14.4975 9.00193C11.461 9.00193 8.9996 11.4645 8.9996 14.5011C8.9996 17.5376 11.461 19.999 14.4975 19.999C17.5341 19.999 19.9942 17.5376 19.9942 14.5011C19.9942 11.4645 17.5341 9.00193 14.4975 9.00193ZM14.4975 10.9316C19.2161 10.9316 19.2221 18.0705 14.4975 18.0705C9.78019 18.0705 9.77294 10.9316 14.4975 10.9316Z" fill="white"/>
</g>

</symbol><symbol id="icon-line" viewBox="0 0 1200 3">
<rect width="1200" height="3" fill="#EBFFE1"/>
<rect width="348" height="3" fill="#A6F97E"/>
</symbol><symbol id="icon-logo" viewBox="0 0 33 33">
<path d="M22.8346 33H10C10.4102 28.3108 11.2268 25.4646 14.9975 19.531C15.9976 18.1493 16.7999 16.5778 17.2123 17.134L17.4963 18.0471C17.9957 17.6128 18.074 17.1345 18.0642 16.1067L20.1654 14.1092L22.2099 17.4194C22.4894 17.2134 22.5417 17.038 22.5506 16.6774L21.5284 12.6824C22.6674 11.6751 23.3771 11.1164 23.2321 10H33V23.0124H22.8346V33Z" fill="#A6F97E"/>
<path d="M1.53051e-07 10.1654L0 23C4.68917 22.5898 7.53541 21.7732 13.469 18.0025C14.8507 17.0024 16.4222 16.2001 15.866 15.7877L14.9529 15.5037C15.3872 15.0043 15.8655 14.926 16.8933 14.9358L18.8908 12.8346L15.5806 10.7901C15.7866 10.5106 15.962 10.4583 16.3226 10.4494L20.3176 11.4716C21.3249 10.3326 21.8836 9.62289 23 9.7679L23 0L9.98759 -1.55171e-07L9.98759 10.1654L1.53051e-07 10.1654Z" fill="#D8FFC5"/>
</symbol></svg>